<?xml version="1.0" standalone="no"?>
<!DOCTYPE svg PUBLIC "-//W3C//DTD SVG 20010904//EN"
 "http://www.w3.org/TR/2001/REC-SVG-20010904/DTD/svg10.dtd">
<svg version="1.0" xmlns="http://www.w3.org/2000/svg"
 width="800.000000pt" height="800.000000pt" viewBox="0 0 800.000000 800.000000"
 preserveAspectRatio="xMidYMid meet">
<metadata>
Created by potrace 1.11, written by Peter Selinger 2001-2013
</metadata>
<g transform="translate(0.000000,800.000000) scale(0.100000,-0.100000)"
fill="#000000" stroke="none">
<path d="M83 7910 c4 -49 11 -110 17 -135 9 -40 8 -50 -9 -73 -10 -15 -35 -60
-55 -99 l-36 -73 1 -177 c1 -199 -5 -195 61 -36 27 66 34 75 83 103 29 16 55
30 58 30 4 0 18 -21 34 -47 42 -74 101 -152 166 -220 l59 -62 -39 -6 c-149
-25 -298 -57 -376 -82 l-47 -15 0 -74 c0 -85 -3 -84 91 -54 74 24 359 83 366
76 2 -2 -12 -29 -33 -60 l-37 -56 -126 -1 c-69 -1 -155 -4 -191 -8 l-65 -6 -3
-64 -3 -64 58 6 c112 12 243 20 243 15 0 -3 -33 -75 -74 -159 -74 -153 -157
-374 -171 -457 -6 -40 -10 -43 -31 -39 -23 4 -24 2 -24 -54 0 -34 5 -59 11
-61 9 -3 9 -17 0 -56 -7 -35 -11 -193 -11 -455 1 -330 3 -405 15 -421 7 -10
22 -51 31 -91 l17 -74 -31 -26 -32 -27 0 -114 c0 -97 2 -113 15 -108 9 4 15 0
15 -10 0 -9 -7 -16 -15 -16 -13 0 -15 -68 -15 -552 l0 -552 35 -143 36 -144
-36 -43 -35 -43 0 -108 0 -107 24 6 c13 3 32 9 43 12 10 4 -1 -11 -25 -32
l-43 -39 3 -73 3 -73 60 51 c33 28 77 65 97 81 l37 30 46 -91 c33 -65 43 -95
36 -104 -6 -7 -53 -34 -106 -61 l-95 -49 -40 39 -40 39 0 -107 c0 -116 1 -117
55 -93 28 13 33 11 91 -30 33 -23 87 -59 120 -79 l59 -37 -133 6 c-74 4 -147
9 -163 13 l-29 6 0 -67 c0 -46 4 -66 13 -66 6 0 75 -5 151 -10 92 -7 188 -7
286 0 120 8 155 7 187 -4 44 -16 41 -17 -71 -41 -167 -36 -393 -126 -524 -209
l-43 -27 3 -102 3 -101 125 -33 c69 -17 195 -43 280 -56 l154 -23 -83 -45
c-45 -24 -123 -74 -173 -111 l-90 -68 -66 36 c-37 20 -86 48 -110 61 l-42 25
0 -61 0 -61 68 -37 69 -37 -69 -79 -68 -79 0 -64 c0 -35 2 -64 3 -64 2 0 33
39 69 88 37 48 84 104 105 125 l39 37 105 -39 c139 -52 288 -88 444 -106 71
-8 130 -17 132 -19 3 -2 -6 -7 -19 -11 -51 -17 -153 -68 -216 -110 -181 -119
-334 -285 -427 -463 l-28 -53 -25 23 c-13 13 -56 61 -95 108 -39 47 -74 89
-79 94 -4 6 -8 -29 -8 -77 l0 -87 81 -85 81 -84 -20 -68 c-26 -86 -42 -166
-42 -203 0 -26 4 -30 29 -30 28 0 29 2 40 68 24 141 52 201 76 162 9 -14 183
-142 257 -188 l68 -42 121 0 121 0 -113 58 c-165 84 -439 275 -439 306 0 20
89 168 147 243 161 212 420 370 695 427 116 24 118 23 160 -42 50 -78 162
-198 235 -252 32 -24 61 -47 65 -50 4 -3 -25 -71 -65 -150 -76 -151 -135 -313
-167 -456 l-18 -84 52 0 53 0 23 92 c12 51 38 135 56 186 38 105 137 314 158
331 10 9 29 4 77 -18 35 -16 81 -36 101 -45 l37 -15 -46 -86 c-54 -103 -105
-229 -134 -334 -11 -42 -23 -84 -25 -93 -5 -15 2 -18 43 -18 l48 0 17 64 c22
83 80 230 128 325 62 122 49 114 165 96 55 -9 101 -18 103 -19 1 -2 13 -43 27
-92 13 -49 34 -115 46 -147 l22 -57 -51 -83 -50 -82 61 -3 c42 -2 63 1 69 10
25 42 28 44 38 28 7 -11 3 -18 -13 -27 -18 -10 18 -12 195 -13 l217 0 7 38
c17 98 17 98 94 159 95 76 217 196 299 296 l64 78 18 -71 c10 -38 32 -111 49
-161 l31 -90 -32 -62 c-17 -34 -49 -89 -70 -122 l-38 -60 61 -3 c33 -2 67 -1
73 2 7 2 25 28 41 56 l28 51 29 -56 30 -55 78 0 c67 0 79 3 79 17 0 15 1 15
18 0 13 -12 36 -17 72 -17 l54 0 -58 59 c-54 55 -58 61 -51 92 12 57 75 220
121 311 35 71 112 199 128 216 2 2 17 -3 33 -11 48 -24 203 -75 309 -102 143
-36 276 -54 447 -62 98 -4 147 -10 147 -17 0 -27 -55 -178 -92 -251 -22 -44
-64 -115 -94 -157 l-53 -78 43 0 c41 0 45 2 82 58 60 90 127 230 154 319 14
46 28 83 32 83 4 0 26 -38 49 -85 l42 -85 -28 -70 c-15 -38 -47 -104 -71 -145
l-43 -75 48 0 47 0 46 87 46 87 22 -75 c12 -41 23 -80 26 -86 2 -9 33 -13 110
-13 l106 0 -6 25 c-3 13 -10 96 -15 182 -10 180 -4 316 13 310 6 -3 49 -30 96
-61 47 -31 145 -86 217 -123 73 -38 133 -70 133 -73 0 -13 -97 -132 -157 -192
l-66 -68 53 0 c49 0 58 4 92 36 30 30 36 33 31 15 -3 -12 -9 -24 -14 -27 -23
-14 -4 -24 45 -24 l54 0 42 83 c67 132 47 125 201 73 241 -80 478 -123 732
-133 86 -3 157 -10 157 -15 0 -4 29 -8 65 -8 36 0 65 4 65 9 0 5 19 11 42 15
33 5 45 3 54 -9 7 -10 27 -15 58 -15 38 0 46 3 46 19 0 14 10 20 38 25 20 4
49 9 64 12 22 4 29 0 43 -25 15 -30 17 -31 86 -31 l71 0 -21 36 c-28 47 -27
51 16 59 69 13 263 75 384 123 l119 47 0 82 c0 46 -2 83 -4 83 -2 0 -42 -18
-89 -40 -160 -73 -510 -181 -529 -162 -4 4 -20 39 -37 77 l-30 70 27 7 c15 3
74 18 131 32 168 42 348 129 469 226 53 43 57 49 60 93 l3 47 -80 -64 c-149
-120 -315 -202 -501 -246 -81 -19 -140 -25 -140 -15 0 3 -11 44 -25 92 -24 81
-25 93 -14 158 6 38 14 133 18 210 l6 140 180 -1 c153 -1 199 -5 305 -27 69
-14 152 -35 184 -47 33 -11 61 -20 63 -20 1 0 3 24 3 54 l0 53 -72 21 c-169
50 -267 64 -469 69 l-197 5 -6 57 c-4 31 -9 67 -12 81 l-4 25 157 -3 c187 -5
344 18 501 70 l97 33 3 42 c2 24 1 43 -2 43 -3 0 -28 -9 -57 -20 -59 -24 -191
-61 -196 -56 -2 2 25 13 59 26 35 12 93 36 131 53 l67 30 0 63 0 63 -112 -53
c-189 -89 -400 -148 -609 -171 l-57 -6 -11 48 c-10 43 -8 62 18 168 80 325
227 616 448 882 9 12 20 8 63 -25 59 -45 193 -126 233 -141 26 -10 27 -9 27
23 0 32 -5 36 -94 87 -52 29 -112 67 -133 85 l-38 32 31 39 c18 21 40 38 51
38 12 0 49 -22 83 -50 109 -87 100 -84 100 -32 0 42 -3 47 -55 87 -30 23 -55
44 -55 45 0 2 25 1 55 -2 l55 -6 0 137 c0 157 8 152 -98 67 l-64 -50 -126 5
c-161 6 -238 26 -263 68 -23 37 -98 226 -101 255 -3 19 3 20 197 24 165 4 221
9 320 30 90 20 121 23 127 14 4 -7 7 159 7 368 l-1 380 -19 -70 c-10 -38 -24
-123 -31 -187 l-11 -118 -86 -44 c-116 -60 -261 -119 -394 -161 -145 -46 -147
-46 -147 8 0 38 9 55 71 137 91 122 163 239 234 379 49 98 69 143 105 238 9
21 10 21 67 7 64 -17 168 -52 196 -66 15 -8 17 -4 17 33 0 28 -6 46 -17 55
-17 13 -17 13 0 14 14 0 17 10 17 69 l0 68 -42 5 c-81 10 -158 38 -158 57 0
32 36 65 119 109 77 41 81 45 81 78 0 19 -3 34 -7 34 -5 0 -41 -18 -81 -40
-40 -22 -74 -40 -76 -40 -1 0 2 26 8 58 8 45 23 74 62 128 90 121 94 130 94
219 l-1 80 -45 -85 c-46 -88 -71 -127 -77 -119 -5 5 12 261 17 266 2 3 27 -7
55 -22 l52 -26 -3 117 -3 118 -62 25 -61 26 -7 55 c-13 105 -55 306 -84 400
l-30 94 34 60 c39 71 87 192 105 265 7 28 15 51 19 51 4 0 26 -37 49 -82 l42
-83 0 83 c0 80 -1 85 -39 142 -34 51 -39 64 -34 100 6 41 6 42 40 35 l34 -6
-3 47 c-3 44 -5 48 -34 56 -30 8 -32 10 -38 78 -4 38 -5 74 -2 79 3 5 22 12
41 15 32 6 35 10 35 40 0 34 0 34 -35 26 -19 -4 -35 -4 -35 0 0 4 16 49 35 99
l35 90 0 496 c0 435 -2 495 -15 495 -13 0 -14 -10 -8 -57 15 -112 8 -481 -10
-583 -21 -110 -65 -282 -75 -291 -4 -4 -20 -9 -37 -12 -29 -5 -32 -2 -73 72
-64 114 -131 199 -236 298 -160 150 -326 238 -549 292 -106 26 -107 26 -119
61 -6 19 -30 77 -54 128 l-43 92 -81 0 c-73 0 -81 -2 -76 -17 11 -36 56 -227
53 -228 -1 -1 -42 -7 -92 -14 -49 -6 -102 -14 -118 -18 -26 -5 -29 -1 -61 68
-18 41 -43 104 -55 142 -22 65 -23 67 -57 67 -19 0 -34 -4 -34 -9 0 -22 43
-145 75 -215 19 -43 35 -79 35 -82 0 -2 -8 -4 -17 -4 -27 0 -202 -82 -256
-119 -42 -29 -51 -31 -80 -22 -63 20 -281 62 -355 68 -71 6 -78 9 -126 51 -28
25 -53 46 -55 48 -4 4 53 143 90 216 16 32 29 60 29 63 0 3 -35 5 -77 3 l-77
-3 -37 -85 c-21 -47 -40 -89 -42 -93 -1 -5 -48 20 -105 56 l-102 65 42 28 41
29 -126 3 c-70 1 -184 1 -255 0 l-127 -3 80 -28 c44 -15 85 -31 92 -35 8 -5
-3 -21 -37 -50 -27 -23 -53 -42 -58 -42 -29 0 -144 78 -172 117 l-31 43 -262
0 -262 0 -2 -35 c-1 -19 -6 -41 -11 -50 -7 -14 -11 -13 -26 10 -17 26 -17 28
5 51 l22 24 -111 0 -112 0 0 -27 c0 -49 -17 -59 -24 -14 -6 40 -7 41 -47 41
-34 0 -39 -3 -35 -17 3 -10 13 -52 21 -93 l16 -75 -37 -32 c-47 -41 -179 -133
-192 -133 -5 0 -60 24 -123 54 -63 29 -149 66 -191 81 -43 15 -78 31 -78 35 0
3 53 32 118 63 113 55 219 87 349 106 43 6 4 9 -155 10 l-212 1 -125 -60 c-69
-33 -127 -60 -130 -60 -3 0 2 15 12 33 10 17 23 44 30 60 l12 27 -62 0 -63 0
-27 -55 c-15 -30 -31 -55 -35 -55 -5 0 -53 7 -108 15 -54 8 -105 15 -111 15
-7 0 -22 18 -33 40 l-20 40 -75 0 -76 0 16 -30 c20 -38 19 -40 -10 -40 -22 0
-25 4 -25 35 0 32 -2 35 -30 35 -27 0 -30 -3 -30 -34 l0 -33 -87 -5 c-95 -5
-103 -2 -103 45 0 26 -1 27 -61 27 l-62 0 5 -45 c3 -25 5 -45 4 -45 0 0 -39
-7 -85 -15 -47 -8 -87 -13 -89 -10 -3 2 1 24 7 49 17 67 18 66 -58 66 l-70 0
-12 -57 c-7 -32 -15 -62 -19 -66 -4 -5 -33 21 -65 57 l-57 66 -97 0 -96 -1
-31 -42 c-17 -23 -39 -57 -49 -74 -18 -30 -24 -33 -67 -33 -55 0 -55 0 -33 83
8 32 15 60 15 63 0 3 -17 4 -37 2 l-38 -3 -16 -75 -15 -75 -100 -7 c-54 -5
-146 -17 -203 -28 -58 -11 -106 -18 -107 -17 -5 5 -54 180 -54 193 0 10 -14
14 -50 14 -39 0 -50 -4 -50 -16 0 -14 43 -173 56 -207 4 -11 1 -17 -9 -17 -27
0 -198 -60 -302 -107 -55 -24 -106 -47 -112 -50 -7 -3 -13 -1 -13 4 0 17 135
217 203 301 37 45 67 85 67 87 0 3 -42 5 -92 5 l-93 0 -70 -98 -70 -97 -7 50
c-3 28 -7 71 -7 98 -1 46 -2 47 -32 47 l-32 0 6 -90z m4307 14 c67 -21 118
-43 131 -57 11 -12 47 -61 80 -109 l60 -88 -53 -62 c-30 -35 -60 -72 -68 -83
-12 -16 -252 -122 -254 -112 -21 71 -77 222 -108 285 l-40 85 28 94 29 95 43
-7 c24 -3 92 -22 152 -41z m-2889 -69 c4 -17 -1 -19 -31 -16 -19 1 -37 4 -39
6 -2 2 7 20 19 41 l23 36 13 -23 c6 -13 14 -33 15 -44z m159 -35 c0 -7 -8 -9
-22 -4 -13 3 -23 7 -24 8 0 0 -6 19 -12 41 l-12 40 35 -37 c19 -20 35 -42 35
-48z m2345 9 l27 -41 -18 -47 c-23 -61 -63 -141 -71 -141 -7 0 4 247 12 261
11 17 22 9 50 -32z m1233 -76 c78 -50 84 -56 77 -81 -4 -15 -8 -28 -9 -29 -1
-1 -52 -5 -114 -9 l-112 -7 -42 39 c-24 22 -56 49 -71 61 l-28 22 38 34 c21
19 49 44 63 55 l25 21 45 -26 c25 -14 83 -50 128 -80z m-2893 11 c-8 -47 -45
-164 -50 -164 -3 0 -30 12 -60 27 -46 23 -55 31 -51 48 3 11 6 41 6 67 0 54 2
55 99 57 l63 1 -7 -36z m234 -26 c15 -35 33 -80 40 -100 12 -38 12 -38 -45
-102 l-57 -63 -79 46 c-63 37 -78 50 -74 66 2 11 13 52 24 90 11 39 23 82 26
98 6 26 9 27 72 27 l65 0 28 -62z m-509 7 c0 -23 -5 -35 -14 -35 -12 0 -81 22
-116 37 -12 5 38 18 123 32 4 0 7 -15 7 -34z m750 18 c5 -5 -31 -36 -63 -54
-15 -8 -20 -4 -32 25 -8 20 -15 38 -15 42 0 6 102 -5 110 -13z m-1570 -37 c0
-2 -8 -21 -17 -42 l-17 -39 -4 28 c-5 37 3 57 23 57 8 0 15 -2 15 -4z m-110
-79 c0 -72 -1 -73 -32 -91 -18 -11 -64 -41 -101 -68 -38 -27 -75 -47 -82 -45
-14 6 -112 178 -121 213 -5 20 0 22 58 33 97 18 178 28 231 30 l47 1 0 -73z
m240 58 c-35 -20 -57 -20 -40 0 7 8 24 15 39 15 l26 -1 -25 -14z m1722 -11
c125 -39 301 -115 290 -126 -5 -5 -52 -24 -105 -43 -105 -38 -250 -69 -366
-80 -68 -7 -73 -6 -68 11 3 11 15 55 27 99 12 44 25 85 29 92 9 17 84 72 98
73 7 0 49 -12 95 -26z m688 -89 c0 -52 -4 -95 -8 -95 -5 0 -39 19 -76 43 l-67
44 68 51 c37 28 71 51 76 51 4 1 7 -42 7 -94z m2904 48 c3 -21 9 -92 12 -158
l7 -120 -38 35 c-45 43 -161 185 -181 222 -14 26 -13 28 11 34 32 8 122 21
156 23 23 1 27 -4 33 -36z m-4991 5 c-2 -13 -7 -59 -11 -103 l-8 -80 -12 85
c-7 47 -15 93 -18 103 -4 13 1 17 24 17 25 0 29 -3 25 -22z m3208 -10 c42 -34
38 -48 -13 -48 -33 0 -65 49 -45 69 15 15 13 16 58 -21z m2173 -18 c225 -76
417 -215 558 -405 64 -85 113 -173 103 -183 -4 -4 -73 -7 -153 -6 -176 1 -306
24 -460 83 -57 21 -105 41 -107 42 -2 2 -10 56 -19 120 -14 103 -63 323 -82
373 -6 17 -3 18 36 11 24 -4 79 -20 124 -35z m-2959 -26 c26 -59 75 -207 75
-227 0 -7 -34 -29 -75 -51 l-75 -38 -39 33 c-57 50 -59 77 -10 161 22 38 52
94 65 124 13 30 26 54 29 54 3 0 16 -25 30 -56z m-3399 -16 c16 -33 50 -97 76
-141 l46 -79 -86 -79 c-48 -43 -102 -96 -120 -119 -51 -61 -81 -57 -163 23
-69 66 -136 150 -187 234 l-32 53 23 14 c54 36 358 153 403 155 6 1 24 -27 40
-61z m837 30 c26 -109 33 -451 11 -549 l-6 -26 -101 24 c-56 13 -112 26 -124
28 -24 5 -61 92 -94 218 -33 127 -23 171 49 207 89 45 247 119 253 120 4 0 9
-10 12 -22z m410 -34 c42 -26 77 -52 77 -58 0 -29 -50 -251 -74 -326 -25 -82
-28 -86 -82 -124 -30 -21 -58 -35 -62 -31 -10 10 -9 490 1 549 8 46 10 48 35
43 15 -3 62 -27 105 -53z m4487 -27 c30 -45 101 -130 158 -189 57 -59 101
-111 98 -117 -4 -6 -36 8 -80 34 -98 60 -278 146 -405 194 l-103 39 48 28 c50
29 201 94 219 93 6 0 35 -37 65 -82z m-2875 -82 c119 -73 144 -90 145 -98 0
-5 -8 -6 -17 -3 -41 12 -196 37 -303 49 l-115 12 100 42 c55 23 103 42 108 42
4 1 41 -19 82 -44z m1675 11 c0 -24 -16 -27 -35 -6 -18 19 -17 20 8 20 17 0
27 -5 27 -14z m341 -40 c65 -70 149 -175 149 -186 0 -5 -17 -36 -37 -67 -44
-69 -120 -235 -129 -280 -3 -18 -9 -33 -13 -33 -3 0 -17 29 -30 65 -30 84
-100 229 -145 299 l-35 55 20 92 c11 51 22 96 25 101 3 4 37 8 75 8 l70 0 50
-54z m-485 12 c17 -18 48 -54 68 -80 l38 -47 -18 -133 c-14 -96 -19 -197 -19
-365 l0 -232 -17 115 c-33 218 -100 452 -188 657 -22 50 -38 92 -37 94 4 3
102 20 128 22 8 0 29 -14 45 -31z m-2911 10 c15 -7 24 -17 21 -25 -8 -19 -87
-135 -90 -131 -6 6 29 168 36 168 4 0 19 -5 33 -12z m3657 -22 l50 -11 -40
-41 -41 -41 -45 53 c-25 29 -46 55 -46 59 0 6 35 1 122 -19z m-1029 -110 c83
-188 145 -398 182 -610 25 -145 25 -144 -62 -53 -114 117 -283 259 -410 344
l-113 75 27 47 c47 82 149 236 164 247 11 9 124 46 160 53 4 0 27 -46 52 -103z
m2047 -9 c7 -43 11 -79 9 -82 -16 -15 -27 23 -32 105 -6 105 4 95 23 -23z
m-4521 88 c23 -8 50 -20 61 -28 19 -13 19 -14 -7 -50 -14 -20 -30 -37 -35 -37
-7 0 -173 -63 -232 -89 -5 -2 10 20 32 48 22 28 57 78 77 111 20 33 42 60 49
60 8 0 32 -7 55 -15z m-1246 -99 c-10 -53 -20 -96 -23 -96 -9 1 -75 90 -75
102 0 11 107 99 113 93 1 -1 -5 -46 -15 -99z m5198 -16 c108 -48 190 -91 307
-164 78 -48 82 -53 82 -86 0 -63 -9 -80 -42 -80 -92 0 -340 -71 -460 -131 -32
-16 -62 -29 -67 -29 -5 0 -19 26 -32 58 -37 95 -118 252 -177 346 l-56 89 62
58 62 58 113 -39 c63 -21 156 -57 208 -80z m-2891 -10 c150 -16 280 -42 280
-55 0 -7 -40 -51 -89 -97 l-89 -85 -123 -7 c-106 -5 -258 -29 -335 -51 -15 -5
-27 2 -46 27 -14 18 -53 62 -86 98 -48 52 -62 74 -68 108 -3 24 -3 46 0 50 21
21 392 29 556 12z m958 3 c-43 -91 -58 -103 -58 -50 0 25 6 37 23 45 27 13 40
15 35 5z m-3405 -88 c26 -30 46 -57 45 -61 -3 -6 -209 -6 -216 0 -3 4 111 116
119 116 3 0 26 -25 52 -55z m242 -25 c10 -33 16 -62 13 -65 -3 -3 -18 -1 -33
5 -19 7 -25 15 -21 26 3 9 6 33 6 55 0 56 14 48 35 -21z m1441 34 l34 -26 0
-173 0 -172 -61 -38 c-34 -21 -96 -64 -139 -97 l-79 -58 -70 45 c-39 25 -71
50 -71 55 0 38 118 287 184 390 40 62 46 66 102 82 32 9 60 17 62 17 2 1 19
-11 38 -25z m1573 -13 c-15 -5 -22 6 -14 19 6 9 10 9 16 -1 5 -8 4 -15 -2 -18z
m-346 -11 c7 -6 -72 -74 -120 -103 -14 -9 20 88 39 111 11 13 64 8 81 -8z
m1965 -72 c27 -46 61 -106 75 -133 31 -63 97 -225 97 -239 0 -6 -19 -24 -41
-40 -65 -46 -209 -188 -269 -265 l-55 -71 -2 48 c-2 26 -12 113 -24 193 -21
142 -21 149 -5 215 25 100 70 209 121 297 25 42 47 77 50 77 2 0 26 -37 53
-82z m1033 42 c10 -6 19 -20 19 -31 0 -18 -1 -19 -25 -3 -14 9 -25 23 -25 30
0 17 5 17 31 4z m-5187 -82 c6 -57 4 -68 -9 -68 -9 0 -15 9 -15 24 0 28 12
118 15 114 1 -2 5 -33 9 -70z m3766 -193 c52 -148 69 -238 71 -372 1 -68 -2
-123 -5 -124 -15 -2 -162 64 -172 77 -21 27 -37 269 -31 466 3 103 9 193 13
199 9 16 82 -128 124 -246z m-3180 230 c0 -3 -11 -27 -24 -53 -13 -26 -38 -90
-56 -142 -18 -52 -36 -99 -40 -103 -4 -5 -44 10 -88 32 -90 45 -86 34 -48 123
14 33 29 45 124 92 100 51 132 64 132 51z m1887 -139 c26 -31 30 -42 22 -57
-9 -18 -12 -18 -47 -3 -20 9 -42 18 -47 20 -11 5 -65 150 -65 174 0 15 72 -55
137 -134z m2944 73 c184 -68 361 -95 556 -86 l121 6 16 -47 c16 -45 16 -49 -6
-99 -22 -50 -26 -53 -98 -84 -57 -24 -78 -29 -90 -20 -119 85 -291 167 -434
207 -109 30 -156 67 -156 121 0 18 1 33 3 33 2 0 41 -14 88 -31z m-3171 -40
c0 -16 -4 -19 -22 -13 -33 10 -35 14 -14 29 23 17 36 11 36 -16z m-2906 -25
l46 -7 0 -44 0 -45 -37 7 c-60 10 -174 46 -228 72 l-50 23 111 0 c61 0 132 -3
158 -6z m-304 -44 c96 -49 194 -84 288 -101 l70 -13 6 -49 c4 -27 5 -51 4 -53
-2 -2 -45 10 -95 26 -99 32 -299 75 -400 86 -35 4 -63 8 -63 11 0 6 101 133
106 133 2 0 40 -18 84 -40z m540 -19 l49 -39 -30 -6 c-16 -3 -50 -3 -74 1
l-45 6 0 44 c0 44 1 45 26 39 14 -4 47 -24 74 -45z m1640 34 c0 -8 -4 -15 -10
-15 -5 0 -10 7 -10 15 0 8 5 15 10 15 6 0 10 -7 10 -15z m1587 -67 c104 -70
231 -177 313 -263 l45 -47 -115 7 -115 8 -45 41 c-26 22 -56 59 -69 81 -13 22
-52 84 -88 137 -36 54 -62 102 -58 108 8 12 3 15 132 -72z m-1107 68 c0 -5
-81 -57 -157 -100 l-62 -35 -31 42 c-16 22 -30 44 -30 48 0 7 63 23 159 39 51
9 121 12 121 6z m210 -4 c0 -4 -25 -32 -56 -62 -31 -30 -99 -106 -151 -168
l-96 -114 -17 28 c-31 46 -55 107 -45 111 33 11 183 103 251 154 71 53 114 72
114 51z m303 -43 l79 -22 55 -116 55 -116 -12 -55 c-15 -70 -21 -76 -79 -90
-27 -6 -90 -26 -141 -44 l-93 -33 -111 44 c-61 24 -135 51 -163 59 -29 9 -53
19 -53 24 0 5 34 49 75 99 100 118 262 271 288 271 11 0 56 -10 100 -21z
m-2416 -5 c-3 -3 -12 -4 -19 -1 -8 3 -5 6 6 6 11 1 17 -2 13 -5z m5391 0 c19
-6 22 -13 22 -58 0 -62 -14 -165 -36 -266 l-16 -75 -70 -33 c-59 -27 -70 -29
-65 -15 58 199 78 276 92 345 23 120 20 116 73 102z m-198 -11 c0 -5 -11 -55
-24 -113 -30 -128 -65 -243 -117 -375 -34 -86 -45 -104 -79 -128 -22 -16 -78
-65 -125 -109 -47 -44 -85 -79 -86 -77 0 2 -3 45 -5 94 -7 136 -33 307 -65
434 -16 63 -28 115 -27 116 12 10 136 67 193 88 119 45 335 90 335 70z m-3661
-72 c17 -25 28 -48 23 -53 -9 -9 -120 -48 -139 -48 -9 0 -13 17 -13 63 l0 63
43 16 c23 8 45 13 48 9 4 -3 21 -26 38 -50z m4327 -35 c49 -24 116 -60 148
-80 54 -35 57 -38 40 -51 -12 -9 -45 -14 -94 -15 l-76 0 -83 101 c-96 117 -93
119 65 45z m-5912 -1 c14 -18 26 -37 26 -42 0 -5 -26 -35 -58 -66 l-58 -58
-69 29 c-37 16 -72 36 -76 44 -5 9 -11 40 -15 69 l-6 54 115 2 115 3 26 -35z
m5680 -61 c47 -53 86 -100 86 -103 0 -7 -211 -63 -216 -58 -1 1 4 38 12 82 7
44 15 101 19 128 3 26 8 47 9 47 2 0 42 -43 90 -96z m-5374 55 c0 -5 -7 -9
-15 -9 -15 0 -20 12 -9 23 8 8 24 -1 24 -14z m270 -69 c82 -43 78 -47 -20 -25
-94 22 -93 21 -80 45 6 11 14 20 18 20 4 -1 41 -19 82 -40z m696 5 c11 -46 0
-55 -68 -55 -67 0 -67 1 -3 49 49 37 63 38 71 6z m-2024 -20 c138 -23 288 -63
401 -105 l54 -20 22 -78 22 -77 -64 -97 c-35 -53 -83 -133 -105 -176 -27 -52
-55 -89 -79 -108 -21 -15 -74 -62 -118 -105 -75 -72 -86 -79 -174 -108 -52
-17 -98 -31 -103 -31 -5 0 -37 20 -71 44 -73 52 -225 142 -272 162 l-34 14 24
87 c44 163 91 286 166 436 92 183 94 187 144 187 24 0 108 -11 187 -25z m3696
-20 c21 -26 47 -84 41 -89 -2 -2 -32 -6 -66 -9 -71 -6 -70 -7 -52 71 17 75 17
74 38 62 11 -5 28 -21 39 -35z m-2712 14 c60 -25 58 -23 44 -48 -11 -21 -12
-21 -55 15 -25 20 -45 40 -45 45 0 12 2 12 56 -12z m1460 -34 c9 -14 15 -27
13 -29 -2 -2 -33 1 -69 7 l-64 10 39 18 c54 24 62 23 81 -6z m4584 5 c0 -5 -4
-10 -10 -10 -5 0 -10 5 -10 10 0 6 5 10 10 10 6 0 10 -4 10 -10z m150 -20 c0
-20 -5 -30 -15 -30 -18 0 -19 14 -5 41 15 27 20 24 20 -11z m-1795 -32 c33
-109 57 -284 62 -455 6 -174 2 -194 -28 -156 -31 37 -201 171 -294 231 -55 36
-102 66 -104 68 -8 7 75 119 139 188 65 69 187 176 202 176 4 0 14 -24 23 -52z
m-4415 -46 c0 -4 -20 -33 -56 -81 -2 -2 -49 23 -82 44 -1 1 9 28 23 59 l25 57
45 -37 c25 -20 45 -39 45 -42z m326 28 c9 0 12 -4 9 -10 -10 -17 -55 -12 -55
6 0 11 5 14 16 10 9 -3 22 -6 30 -6z m3221 -67 c-3 -10 -5 -4 -5 12 0 17 2 24
5 18 2 -7 2 -21 0 -30z m2433 19 c0 -10 -53 -87 -83 -119 l-20 -22 -33 52
c-39 60 -40 65 -16 83 19 15 152 20 152 6z m-336 -37 c17 -25 16 -26 -31 -76
-105 -111 -222 -306 -267 -445 -15 -47 -22 -54 -74 -82 -67 -36 -239 -112
-252 -112 -5 0 16 42 47 93 31 50 80 144 109 207 51 113 124 316 124 345 0 19
24 29 165 65 138 37 158 37 179 5z m-4560 -27 c-11 -72 -15 -73 -74 -22 -30
26 -56 50 -58 55 -2 5 28 9 67 9 l71 0 -6 -42z m5127 29 c-1 -12 -15 -9 -19 4
-3 6 1 10 8 8 6 -3 11 -8 11 -12z m-4838 -13 c31 -3 57 -10 57 -13 0 -6 -170
-81 -184 -81 -7 0 -26 62 -26 88 0 24 2 24 48 19 26 -3 73 -9 105 -13z m-549
-79 c41 -33 75 -64 75 -69 1 -5 -48 -6 -116 -3 -120 7 -163 14 -163 26 0 4 23
33 51 64 34 38 55 55 64 50 7 -5 47 -35 89 -68z m5331 20 c46 -53 47 -56 40
-102 -9 -64 -57 -209 -93 -279 l-29 -57 -33 79 c-18 43 -48 109 -66 147 l-34
67 53 68 c29 37 64 82 76 100 12 17 26 32 31 32 5 0 30 -25 55 -55z m-5565 37
c0 -5 -11 -19 -25 -32 l-25 -23 0 25 c0 13 3 28 7 31 9 10 43 9 43 -1z m2273
-59 c30 -69 77 -196 73 -200 -4 -4 -153 152 -193 202 -32 40 -32 40 -10 47 12
3 41 6 63 7 41 1 42 0 67 -56z m387 37 c85 -12 85 -12 119 -57 l34 -46 -6
-161 c-9 -220 -12 -226 -53 -124 -39 95 -124 240 -195 334 -27 36 -49 67 -49
69 0 3 15 3 33 1 17 -3 70 -10 117 -16z m-2834 -27 c-3 -3 -13 -2 -23 2 -17 7
-17 8 2 15 19 7 34 -5 21 -17z m1124 23 c0 -2 -24 -44 -52 -93 -29 -49 -69
-123 -88 -166 -19 -42 -38 -76 -41 -77 -7 0 -35 61 -75 163 -21 53 -21 58 -6
63 43 14 212 87 229 99 18 14 33 19 33 11z m1609 -207 c60 -91 148 -275 137
-286 -3 -3 -41 19 -86 48 -71 47 -82 58 -90 94 -9 35 -91 292 -107 335 -11 29
87 -99 146 -191z m-477 86 c69 -82 198 -212 289 -292 38 -33 45 -56 65 -208
l7 -50 -114 110 c-124 120 -234 212 -347 290 -40 27 -70 54 -68 59 3 6 22 50
43 99 21 48 41 86 44 85 3 -2 40 -43 81 -93z m3074 23 l37 -61 -74 -69 c-81
-75 -264 -218 -279 -218 -12 0 20 75 66 158 61 108 188 267 205 256 4 -2 25
-32 45 -66z m-5921 52 c3 -5 -8 -16 -25 -25 -33 -17 -36 -15 -18 15 14 21 33
26 43 10z m2013 -14 c40 -14 77 -28 83 -32 6 -3 -19 -23 -58 -44 -37 -21 -71
-35 -75 -31 -7 7 -48 111 -48 124 0 12 23 8 98 -17z m537 -28 c-4 -24 -9 -45
-10 -46 -2 -2 -25 9 -51 24 l-48 28 54 17 c30 9 57 17 58 18 2 1 1 -18 -3 -41z
m-2136 -57 c34 -82 37 -82 -62 -1 -31 25 -56 48 -56 51 -1 10 73 37 81 30 4
-3 21 -39 37 -80z m4897 2 c-40 -121 -145 -326 -230 -453 -43 -63 -79 -116
-81 -118 -2 -2 -26 -9 -53 -17 -48 -12 -52 -12 -71 9 l-21 23 96 144 c52 79
125 205 162 280 l66 135 75 41 c42 23 78 40 80 38 1 -2 -9 -39 -23 -82z
m-1562 61 c9 -24 7 -28 -9 -14 -17 14 -20 30 -6 30 5 0 12 -7 15 -16z m-3166
-47 c4 -30 -12 -37 -22 -9 -3 9 -9 23 -12 30 -4 10 0 13 12 10 12 -2 20 -13
22 -31z m1251 -59 l22 -63 -23 -15 c-12 -8 -55 -41 -95 -73 -40 -31 -73 -55
-73 -51 0 24 127 264 140 264 4 0 18 -28 29 -62z m2181 12 c61 -31 62 -32 57
-68 -3 -20 -21 -77 -40 -127 -35 -89 -36 -90 -47 -60 -20 53 -80 266 -80 286
0 22 12 18 110 -31z m-3770 -44 c90 -73 218 -193 230 -216 6 -11 1 -40 -14
-86 -13 -38 -31 -104 -41 -146 -9 -43 -20 -78 -24 -78 -18 0 -147 104 -239
194 -88 85 -202 220 -202 239 0 12 133 133 163 149 37 19 31 22 127 -56z m606
54 c38 -5 126 -10 195 -10 114 0 128 -2 144 -20 18 -20 18 -24 -24 -148 -42
-128 -178 -425 -192 -420 -11 5 -119 137 -173 212 -39 55 -51 83 -62 138 -35
185 -28 276 22 264 12 -3 52 -10 90 -16z m1525 -51 c139 -72 147 -80 126 -112
-38 -59 -142 -179 -205 -239 -85 -80 -213 -178 -224 -172 -4 3 -8 24 -8 47 0
49 -35 269 -54 344 l-14 53 33 20 c35 22 218 119 224 120 2 0 57 -28 122 -61z
m1892 -102 c80 -52 183 -133 282 -221 55 -50 56 -33 -10 -156 l-34 -65 -71 75
c-88 92 -167 209 -220 324 -22 47 -40 89 -40 91 0 11 15 3 93 -48z m1818 -101
c74 -176 74 -169 -7 -256 -77 -81 -147 -138 -245 -197 l-65 -41 -95 10 c-165
17 -159 15 -159 51 1 35 16 167 25 207 4 18 27 38 78 69 97 60 237 166 322
245 61 56 72 63 82 49 7 -9 35 -70 64 -137z m-4688 -6 c37 -45 67 -88 67 -94
0 -39 -41 -120 -91 -183 -31 -40 -65 -85 -75 -102 -16 -27 -22 -29 -102 -36
-46 -4 -88 -3 -93 2 -4 4 20 65 55 134 35 70 83 181 107 247 24 67 49 120 54
119 6 -2 40 -41 78 -87z m2395 -37 c64 -135 95 -213 87 -221 -5 -5 -175 56
-186 67 -4 3 -1 47 7 96 7 50 13 111 13 138 1 26 5 47 9 47 5 0 36 -57 70
-127z m-3853 22 c59 -77 204 -225 278 -283 l58 -46 -83 -27 c-217 -71 -405
-191 -559 -357 l-73 -79 -72 109 -73 108 25 103 c14 56 41 151 61 210 36 105
38 109 83 135 64 36 218 140 260 173 19 16 37 25 41 21 4 -4 28 -34 54 -67z
m4950 48 c-68 -107 -121 -183 -129 -183 -4 0 -5 7 -2 16 3 9 6 23 6 33 0 15
124 161 137 161 3 0 -3 -12 -12 -27z m-2981 -78 c18 -91 36 -234 36 -281 0
-30 -3 -33 -50 -44 -27 -6 -53 -9 -59 -6 -5 3 -26 37 -47 74 -21 37 -55 93
-75 125 l-38 58 42 38 c73 66 161 131 168 123 4 -4 14 -43 23 -87z m848 13
c79 -59 426 -394 417 -403 -3 -2 -56 13 -119 35 -99 33 -222 61 -362 85 l-38
6 0 169 c0 99 4 170 9 170 6 0 47 -28 93 -62z m1453 -30 c57 -99 98 -153 170
-230 30 -31 51 -59 47 -61 -8 -4 -158 8 -242 20 -41 6 -57 14 -73 36 l-21 27
27 108 c14 59 29 124 33 145 3 20 7 37 9 37 1 0 24 -37 50 -82z m-1699 -235
c-1 -1 -256 -9 -256 -7 0 0 55 57 123 125 l122 124 6 -120 c3 -66 5 -121 5
-122z m-1923 109 c4 -31 9 -72 13 -89 l7 -33 -58 0 -57 0 7 33 c4 17 16 65 27
105 20 67 22 71 38 57 11 -10 20 -38 23 -73z m-1818 18 c50 -28 104 -61 120
-74 l29 -23 -65 -12 c-35 -7 -97 -15 -136 -20 l-73 -7 0 30 c0 40 21 156 28
156 3 0 47 -23 97 -50z m4663 -18 c86 -50 92 -55 86 -80 -27 -119 -65 -254
-74 -265 -4 -5 -26 16 -47 47 -39 54 -40 58 -52 183 -6 70 -14 139 -18 152 -7
28 -11 30 105 -37z m-1764 -211 c10 -18 16 -34 14 -36 -24 -20 -51 -24 -100
-13 -29 6 -56 14 -60 17 -7 6 12 104 33 169 l11 33 43 -68 c23 -38 50 -84 59
-102z m3790 72 c-3 -49 -7 -97 -9 -108 -2 -19 -12 -20 -151 -26 -82 -3 -184
-9 -227 -14 -75 -6 -78 -6 -69 12 20 36 68 71 117 86 85 25 211 75 272 106 32
17 61 30 66 31 4 0 4 -39 1 -87z m750 -48 c14 -61 28 -136 32 -167 l6 -56
-123 34 c-68 19 -149 39 -181 45 -32 6 -58 15 -58 18 0 4 33 30 73 59 39 28
103 83 142 122 38 38 72 66 76 62 4 -4 19 -57 33 -117z m-6871 10 c-14 -50
-27 -92 -30 -94 -2 -3 -17 10 -34 28 l-30 33 57 64 c31 36 58 63 60 62 1 -2
-9 -44 -23 -93z m4470 10 c64 -22 117 -43 117 -47 0 -5 -13 -35 -29 -67 l-30
-58 -90 -12 c-50 -6 -97 -14 -104 -17 -10 -3 -16 5 -21 27 -16 81 2 224 27
217 7 -2 65 -21 130 -43z m-3180 -52 c3 -16 3 -30 1 -32 -3 -3 -33 9 -67 26
l-62 32 61 0 c59 1 62 0 67 -26z m-1607 -41 c-82 -107 -184 -273 -248 -403
-35 -70 -65 -128 -68 -129 -30 -2 -70 222 -70 394 l0 93 116 22 c64 13 155 36
202 51 48 15 93 28 100 29 7 1 -7 -25 -32 -57z m1761 8 c12 -28 20 -50 18 -50
-2 0 -10 -3 -19 -6 -11 -4 -18 5 -26 36 -6 23 -14 48 -17 56 -3 8 1 14 8 14 8
0 24 -23 36 -50z m-410 32 c10 -6 12 -46 10 -155 l-4 -147 -64 -58 c-35 -31
-82 -76 -105 -100 l-40 -43 -119 36 c-112 34 -258 62 -354 67 l-43 3 78 77
c150 147 335 254 534 308 75 21 90 23 107 12z m2101 2 c51 -7 52 -8 52 -39 0
-48 49 -308 75 -398 13 -42 19 -79 15 -82 -23 -14 -388 193 -497 282 l-43 35
0 88 0 88 113 11 c216 22 220 22 285 15z m318 -35 c110 -21 299 -79 388 -119
l49 -22 -7 -62 c-3 -33 -10 -62 -16 -64 -36 -12 -243 -147 -315 -204 -48 -39
-90 -66 -95 -62 -21 23 -80 247 -104 394 -9 52 -19 110 -22 128 -3 18 -1 32 5
32 6 0 58 -9 117 -21z m2031 -46 l-27 -27 -46 22 c-26 13 -44 25 -42 28 10 9
123 20 133 12 6 -5 -1 -19 -18 -35z m-465 21 l86 -7 -10 -27 c-5 -16 -18 -36
-29 -46 -17 -15 -26 -16 -88 -5 -64 12 -69 15 -90 51 -28 50 -27 53 12 46 17
-3 71 -8 119 -12z m-3723 -75 c7 -3 -27 -28 -75 -55 l-89 -51 -3 75 c-2 41 -1
81 2 88 4 10 24 5 78 -20 40 -18 79 -35 87 -37z m-1407 5 c24 -25 46 -51 50
-57 3 -7 0 -46 -7 -87 -8 -41 -14 -92 -14 -113 -1 -43 5 -40 -151 -87 -58 -18
-132 -45 -165 -61 -32 -15 -61 -27 -62 -25 -6 5 78 157 146 266 74 118 140
210 152 210 4 0 27 -21 51 -46z m2138 24 c0 -19 -18 -43 -25 -36 -4 3 -2 16 5
27 12 24 20 27 20 9z m-170 -30 c0 -13 -23 -5 -28 10 -2 7 2 10 12 6 9 -3 16
-11 16 -16z m611 -145 c44 -113 89 -249 89 -270 0 -22 -29 -15 -130 33 -81 38
-104 54 -131 91 -17 25 -59 75 -93 110 -56 61 -59 66 -42 79 10 7 44 18 75 24
31 6 74 17 96 25 86 29 89 27 136 -92z m-1102 27 c12 -40 12 -41 -36 -97 -26
-30 -75 -80 -108 -109 l-60 -54 -7 28 c-5 15 -11 56 -14 92 -7 74 -19 60 116
137 41 24 80 43 86 43 6 0 16 -18 23 -40z m3270 -32 c25 -142 25 -137 5 -145
-11 -5 -41 -21 -67 -37 l-49 -29 -40 40 -40 41 66 92 c36 51 66 96 66 101 0 5
10 9 23 9 20 0 24 -8 36 -72z m221 -10 c0 -9 -49 -42 -54 -37 -2 2 -7 31 -11
64 l-6 60 35 -40 c20 -22 36 -43 36 -47z m-400 66 c0 -6 -46 -70 -73 -101
l-19 -21 -29 25 c-21 19 -28 33 -24 51 5 30 1 28 60 40 61 12 85 14 85 6z
m-2688 -31 c16 -14 16 -17 1 -49 -9 -19 -20 -34 -24 -34 -12 0 -39 48 -46 81
-5 29 -5 30 23 23 16 -4 37 -13 46 -21z m3862 2 c16 -24 16 -26 -7 -34 -84
-32 -106 -35 -147 -16 -63 29 -57 36 50 59 87 19 85 19 104 -9z m-4020 -142
c27 -82 32 -104 21 -113 -16 -13 -23 -5 -73 95 l-39 80 20 28 c12 15 25 23 29
19 4 -4 23 -54 42 -109z m4546 22 c38 -146 130 -336 216 -446 47 -58 179 -189
243 -239 38 -30 67 -58 65 -62 -3 -4 -34 -24 -70 -44 -72 -40 -61 -40 -222 -2
l-93 21 -35 69 c-68 135 -183 295 -303 421 -48 50 -61 73 -94 165 -51 141 -51
144 -2 154 72 16 219 36 249 35 27 -2 30 -7 46 -72z m365 60 c115 -15 283 -55
363 -85 l47 -18 -2 -154 c-2 -84 -10 -205 -18 -268 l-15 -115 -58 -52 c-31
-29 -65 -55 -75 -59 -47 -15 -280 197 -379 347 -32 47 -73 120 -92 161 -32 70
-86 227 -86 249 0 14 190 11 315 -6z m-2504 -52 c-10 -17 -10 -16 -11 3 0 23
13 41 18 25 2 -6 -1 -18 -7 -28z m-3940 -34 c-22 -9 -31 -2 -31 25 0 35 12 39
30 8 15 -24 15 -28 1 -33z m2692 32 c87 -60 306 -299 307 -334 0 -11 -58 -2
-210 35 l-126 30 -21 83 c-19 73 -20 92 -11 149 6 36 13 66 15 66 2 0 23 -13
46 -29z m2606 5 c23 -13 20 -15 -74 -65 -54 -28 -99 -51 -101 -51 -2 0 1 10 7
23 9 19 124 107 139 106 3 0 16 -6 29 -13z m336 -64 l7 -23 -36 23 c-32 21
-34 24 -19 36 20 14 36 2 48 -36z m-3742 16 c20 -21 22 -32 19 -100 -3 -64 -6
-76 -17 -65 -7 6 -39 37 -70 67 l-57 55 39 32 c45 39 57 40 86 11z m-901 -75
c16 -86 16 -88 -4 -105 -19 -17 -23 -16 -89 17 -38 20 -69 39 -69 44 0 10 129
131 139 131 4 0 14 -39 23 -87z m2795 50 c-37 -203 -40 -213 -64 -213 -45 0
-223 33 -223 41 0 16 265 199 288 199 2 0 1 -12 -1 -27z m-2374 -83 c26 -50
45 -95 42 -100 -3 -6 -35 -48 -70 -95 -36 -47 -72 -99 -80 -115 l-16 -31 -73
67 c-50 45 -77 78 -84 102 -11 36 -11 36 51 91 34 31 87 81 117 113 30 31 57
57 60 57 3 1 27 -40 53 -89z m3477 81 c0 -11 -139 -75 -147 -67 -9 9 -5 11 67
45 69 33 80 36 80 22z m651 -62 c149 -102 167 -122 189 -209 22 -87 52 -252
46 -257 -5 -5 -153 82 -256 150 -91 60 -184 133 -269 209 l-51 46 122 61 c68
34 124 61 126 61 2 0 44 -27 93 -61z m-5468 14 c8 -14 -78 -158 -96 -161 -15
-3 -17 6 -17 77 0 67 3 80 18 84 29 8 91 7 95 0z m387 -18 c79 -17 192 -49
215 -63 11 -6 5 -21 -27 -70 -23 -34 -49 -62 -58 -62 -8 0 -57 9 -107 19 -51
11 -121 22 -155 26 l-63 7 -38 85 -37 86 97 -6 c54 -3 132 -13 173 -22z m3615
-5 c8 -16 15 -33 15 -39 0 -12 -111 -104 -117 -97 -4 4 77 166 83 166 2 0 10
-13 19 -30z m243 -9 c12 -10 22 -21 22 -24 0 -5 -57 -27 -70 -27 -17 0 -19 34
-4 51 21 24 26 24 52 0z m-4488 -71 c0 -78 11 -69 -105 -91 -67 -12 -208 -50
-274 -74 -40 -14 -45 -14 -56 2 -13 17 -10 37 9 61 27 36 350 171 409 172 15
0 17 -10 17 -70z m2334 15 l103 -55 31 -68 c40 -89 57 -140 50 -148 -9 -8
-242 113 -273 142 -23 21 -25 31 -25 104 0 44 2 80 5 80 3 0 52 -25 109 -55z
m-388 -20 c27 -25 70 -62 96 -82 41 -32 48 -43 53 -82 3 -25 13 -93 21 -149 9
-57 14 -106 12 -108 -2 -2 -46 39 -98 91 l-95 95 -17 102 c-9 57 -20 120 -24
141 -4 20 -4 37 -1 37 2 0 27 -20 53 -45z m1366 -22 c65 -26 120 -54 123 -62
12 -30 -25 -51 -89 -51 l-61 0 -58 86 c-32 48 -52 84 -45 81 7 -4 66 -28 130
-54z m1778 36 c0 -30 -81 -129 -106 -129 -15 0 -59 68 -50 77 9 9 129 61 144
62 6 1 12 -4 12 -10z m-4790 -18 c16 -32 12 -41 -20 -41 -34 0 -34 0 -18 35
13 30 24 32 38 6z m686 -26 c19 -8 43 -20 54 -28 20 -14 17 -16 -43 -56 -71
-46 -72 -46 -116 -28 l-31 13 40 57 c23 31 45 57 51 57 5 0 25 -7 45 -15z
m4358 -98 c110 -98 153 -132 276 -214 122 -81 202 -128 281 -166 63 -29 64
-32 68 -139 1 -39 -2 -69 -8 -73 -15 -8 -166 20 -266 50 -141 42 -316 136
-437 233 l-56 46 -11 75 c-5 42 -11 106 -13 144 -3 64 -2 68 27 92 17 13 36
24 44 25 7 0 50 -33 95 -73z m-2750 23 c9 -9 -2 -70 -13 -70 -4 0 -14 21 -24
46 l-16 45 22 -7 c12 -3 26 -10 31 -14z m-898 -122 c-15 -83 -36 -241 -36
-277 0 -7 -29 26 -64 74 l-65 87 37 57 c20 31 56 82 80 114 60 80 71 67 48
-55z m1964 92 c11 -7 7 -10 -17 -10 -18 0 -33 5 -33 10 0 13 30 13 50 0z
m1060 -55 c25 -35 45 -69 44 -74 -1 -6 -2 -28 -2 -49 -3 -71 -14 -75 -113 -45
l-86 27 -27 84 c-15 46 -26 85 -24 87 6 6 120 33 143 34 14 0 34 -19 65 -64z
m-3509 24 c26 -18 89 -133 89 -161 0 -5 -15 -1 -32 10 -18 11 -64 37 -103 57
-38 20 -70 40 -70 45 0 7 72 67 83 69 2 1 17 -8 33 -20z m-827 -66 c14 -43 28
-96 32 -119 l6 -40 -124 -31 c-67 -17 -126 -28 -130 -24 -4 3 -10 39 -14 78
-6 60 -3 84 16 143 l23 70 82 0 83 0 26 -77z m4533 55 c-3 -8 -6 -5 -6 6 -1
11 2 17 5 13 3 -3 4 -12 1 -19z m-4318 -3 c129 -23 123 -18 101 -68 -17 -37
-27 -45 -86 -69 -37 -16 -72 -28 -78 -28 -6 0 -19 30 -28 68 -9 37 -20 77 -24
90 -8 27 -1 28 115 7z m-595 -37 c3 -24 10 -84 16 -135 6 -51 13 -99 16 -107
4 -11 -7 -16 -53 -20 -32 -4 -79 -9 -105 -11 l-46 -5 -55 62 c-93 105 -138
166 -128 172 30 19 279 83 328 85 18 1 23 -6 27 -41z m3026 -13 c63 -14 128
-25 144 -25 50 0 21 -11 -66 -26 -46 -8 -113 -23 -150 -34 -37 -10 -70 -15
-72 -12 -2 4 -7 36 -11 71 -7 64 -7 64 16 57 13 -4 76 -18 139 -31z m-306 -43
l7 -53 -28 7 c-15 4 -29 8 -30 8 -1 1 5 25 14 54 9 29 20 49 24 45 3 -5 9 -32
13 -61z m1466 61 c-1 -5 -6 -17 -13 -28 -11 -18 -20 -19 -87 -15 -82 6 -79 11
20 34 80 18 80 18 80 9z m900 -29 c0 -22 -2 -24 -14 -14 -8 6 -12 18 -9 26 9
23 23 16 23 -12z m1080 -126 c44 -65 80 -123 80 -128 0 -5 -30 2 -67 16 -38
14 -76 28 -85 31 -10 3 -20 19 -22 37 -11 69 -26 176 -26 187 0 23 40 -24 120
-143z m-3801 79 c63 -31 120 -57 127 -57 22 0 16 -20 -34 -114 -36 -67 -57
-94 -85 -110 -36 -21 -36 -21 -56 -1 -27 27 -98 354 -74 343 4 -2 59 -29 122
-61z m-3023 7 c-30 -21 -44 -16 -17 7 13 11 27 17 30 13 3 -3 -3 -12 -13 -20z
m5044 0 c0 -8 -5 -12 -10 -9 -6 4 -8 11 -5 16 9 14 15 11 15 -7z m-3314 -53
c86 -41 264 -146 264 -156 0 -2 -13 -34 -29 -71 -64 -152 -113 -352 -132 -547
l-12 -119 -86 7 c-95 8 -165 27 -319 87 -86 34 -103 44 -110 67 -4 14 -7 105
-7 201 0 177 12 266 52 395 15 50 17 52 93 87 42 21 99 50 126 67 27 16 51 30
54 30 3 0 51 -21 106 -48z m742 -186 c0 -110 -3 -213 -7 -229 -5 -26 -7 -27
-19 -13 -18 21 -18 238 -1 380 18 146 28 97 27 -138z m3317 23 c13 -51 22 -94
21 -95 -2 -2 -30 13 -62 32 -57 34 -62 41 -99 121 l-38 85 27 28 27 28 50 -52
c45 -48 52 -62 74 -147z m-799 101 c90 -16 93 -17 104 -61 6 -22 10 -41 8 -43
-7 -6 -207 99 -202 106 7 11 18 11 90 -2z m-1681 -5 c13 -5 14 -8 3 -15 -19
-13 -28 -11 -28 6 0 17 2 18 25 9z m1339 -34 c6 -6 -6 -28 -31 -57 -22 -27
-48 -60 -57 -75 -18 -27 -53 -40 -43 -15 3 6 21 47 39 90 31 72 35 77 58 71
14 -3 29 -9 34 -14z m-2013 -7 c8 -9 55 -50 104 -91 122 -101 141 -149 78
-198 -21 -16 -74 -65 -119 -111 -75 -76 -83 -81 -101 -68 -18 12 -19 20 -12
62 5 26 12 132 15 236 4 103 10 187 14 187 4 0 14 -8 21 -17z m1628 -19 l21
-35 -50 -54 c-39 -40 -59 -54 -86 -57 -33 -4 -35 -2 -45 36 -6 23 -14 56 -19
75 -5 19 -8 37 -5 39 5 5 114 29 142 31 14 1 28 -10 42 -35z m-2098 4 c41 -48
43 -62 5 -33 -20 15 -36 34 -36 41 0 20 9 17 31 -8z m-1887 -37 c-7 -7 -34 28
-34 43 1 6 10 0 21 -13 11 -13 17 -27 13 -30z m3377 29 c22 0 39 -3 39 -7 0
-8 -119 -74 -132 -73 -5 0 -8 21 -8 46 l0 47 31 -7 c17 -3 49 -6 70 -6z
m-2386 -17 c-3 -10 -14 -54 -23 -98 l-17 -80 -11 85 c-10 75 -10 87 4 98 25
19 56 16 47 -5z m4020 11 c15 -6 14 -8 -1 -25 -19 -21 -34 -16 -34 12 0 20 8
23 35 13z m-1271 -84 c8 -35 13 -66 11 -69 -7 -6 -187 -52 -191 -48 -2 1 16
41 39 87 36 73 47 86 77 96 19 6 38 9 42 5 4 -3 14 -35 22 -71z m969 -11 c34
-18 72 -39 85 -47 23 -15 23 -15 -28 -43 l-52 -28 -81 23 c-45 13 -108 29
-139 36 -52 10 -71 22 -50 32 4 2 26 26 50 55 l43 52 55 -25 c30 -13 83 -38
117 -55z m-1583 -9 l0 -79 -52 -40 c-29 -22 -53 -39 -54 -38 -1 1 1 45 3 98
l6 96 41 21 c22 11 44 21 49 21 4 1 7 -35 7 -79z m4203 61 c-3 -12 -11 -17
-19 -14 -11 4 -12 9 -3 19 16 20 28 17 22 -5z m-6490 -263 c1 -108 -1 -199 -5
-203 -4 -4 -45 18 -92 48 l-85 56 -41 128 c-22 71 -40 138 -40 148 0 17 18 24
123 50 l122 30 8 -30 c5 -16 9 -118 10 -227z m4958 144 c124 -70 333 -137 487
-157 56 -7 58 -11 46 -74 -5 -24 -19 -40 -58 -65 -28 -18 -86 -61 -130 -96
l-79 -62 -40 48 c-52 62 -247 258 -309 310 -41 33 -52 51 -77 121 -16 45 -26
84 -24 87 3 3 33 -14 67 -38 33 -23 86 -57 117 -74z m-3828 -99 c69 -73 77
-85 77 -121 0 -43 37 -272 49 -306 8 -22 -18 -116 -40 -142 -21 -25 -150 -17
-281 17 l-118 32 0 66 c0 141 66 437 130 586 l22 50 41 -50 c23 -27 77 -86
120 -132z m1498 86 l-29 -74 -74 -36 c-40 -20 -76 -35 -79 -33 -4 2 -5 27 -2
56 2 36 9 56 20 63 46 27 188 103 190 101 1 -1 -11 -36 -26 -77z m1821 56 c43
-24 45 -28 76 -125 32 -101 75 -295 70 -312 -2 -5 -20 13 -40 39 -20 26 -77
88 -125 136 l-89 88 25 99 c14 55 29 100 32 100 4 0 26 -11 51 -25z m1973 13
c30 -14 31 -19 5 -41 -21 -17 -70 -21 -104 -8 -16 6 -13 11 25 34 53 31 43 29
74 15z m-4305 -36 c0 -15 -3 -44 -6 -64 l-6 -37 -39 20 c-22 11 -39 23 -39 27
0 13 36 62 56 76 24 18 34 12 34 -22z m3652 -31 c152 -51 144 -65 -47 -77
l-100 -7 3 67 c3 58 6 67 20 61 10 -4 65 -24 124 -44z m-6707 25 c1 0 23 -39
49 -86 113 -199 248 -374 409 -533 l109 -107 -38 -16 c-44 -18 -224 -107 -252
-125 -15 -10 -37 -4 -123 33 -57 25 -144 68 -194 96 l-90 50 -8 93 c-10 116
-2 337 18 488 8 63 15 116 15 118 0 3 104 -8 105 -11z m515 -33 l0 -47 -40 39
c-40 39 -40 40 -18 47 53 14 58 11 58 -39z m-206 -51 c45 -42 118 -108 164
-146 67 -57 84 -77 93 -110 17 -66 46 -141 89 -228 22 -45 38 -83 36 -86 -10
-9 -272 258 -340 348 -75 98 -196 278 -196 292 0 4 16 8 36 8 32 0 47 -10 118
-78z m3798 -23 c-61 -97 -124 -179 -137 -179 -10 0 -15 10 -15 33 0 28 11 42
83 104 45 40 84 72 85 73 2 0 -5 -14 -16 -31z m464 5 c44 -9 85 -19 92 -23 9
-5 -19 -20 -73 -39 -96 -35 -87 -37 -131 24 -17 25 -9 54 16 54 10 0 53 -7 96
-16z m1077 -29 c49 -37 68 -61 118 -150 52 -93 144 -226 221 -319 l25 -29 -65
-96 c-35 -53 -75 -118 -89 -145 -24 -47 -25 -48 -40 -27 -8 12 -45 79 -82 150
-62 117 -69 135 -75 207 -13 148 -54 364 -82 438 -10 25 7 18 69 -29z m-1805
15 c-1 -5 -46 -41 -98 -80 -125 -92 -174 -94 -141 -7 5 13 18 28 28 32 15 6
200 63 211 64 2 1 2 -3 0 -9z m398 -42 c-9 -12 -16 -19 -16 -15 0 11 24 47 28
42 2 -2 -3 -14 -12 -27z m-1226 -51 c0 -1 -22 -24 -50 -50 l-50 -48 -25 57
c-23 53 -24 59 -10 81 l15 23 60 -30 c33 -17 60 -31 60 -33z m4210 54 c0 -6
-14 -30 -30 -54 -46 -69 -107 -194 -132 -274 -13 -40 -26 -73 -30 -73 -5 0 -8
17 -8 38 0 47 -22 173 -48 274 l-20 77 42 5 c85 12 103 13 164 15 34 0 62 -3
62 -8z m100 -52 c-56 -140 -222 -440 -236 -426 -7 7 62 210 91 268 53 104 126
209 146 209 18 0 18 -1 -1 -51z m-2387 -25 c-2 -5 -22 -65 -44 -134 -23 -69
-43 -131 -45 -138 -5 -18 -37 6 -156 118 -96 89 -111 110 -85 110 6 0 62 22
122 48 l110 48 50 -22 c28 -12 49 -25 48 -30z m1647 36 c-19 -12 -30 -12 -30
-1 0 10 31 20 40 14 2 -2 -2 -8 -10 -13z m299 -79 c36 -151 51 -279 51 -428 0
-138 -1 -142 -27 -175 -54 -67 -118 -128 -134 -128 -29 0 -151 50 -262 108
-83 42 -106 59 -102 71 49 127 107 348 130 492 5 33 11 39 58 59 62 27 237 89
254 90 6 0 21 -39 32 -89z m-4227 22 c-44 -55 -112 -119 -112 -106 0 12 126
143 136 143 3 0 -8 -17 -24 -37z m507 -14 c39 -14 39 -20 0 -43 -17 -10 -47
-32 -67 -50 -35 -31 -35 -31 -29 -6 4 14 7 30 7 37 0 10 47 73 54 73 2 0 17
-5 35 -11z m2102 -15 l24 -27 -27 18 c-16 9 -28 21 -28 26 0 14 5 11 31 -17z
m-2463 -154 c-14 -23 -39 -22 -97 2 l-30 13 47 54 47 54 23 -51 c19 -44 21
-54 10 -72z m1852 -111 c14 -12 55 -46 91 -75 l66 -54 -9 -62 c-11 -75 -15
-81 -128 -212 -147 -170 -341 -334 -542 -456 -84 -50 -89 -52 -119 -40 l-31
13 6 76 c16 182 68 420 133 611 37 109 132 326 158 363 10 15 38 27 83 38 l67
16 100 -98 c55 -54 111 -108 125 -120z m-1196 191 c4 -5 6 -12 3 -17 -8 -12
-95 -58 -100 -53 -2 3 -2 24 1 48 l4 43 42 -6 c22 -4 45 -11 50 -15z m-2731
-148 c70 -143 73 -152 57 -152 -5 0 -36 55 -69 123 -63 129 -77 167 -64 167 4
0 38 -62 76 -138z m4609 31 c42 -35 109 -98 149 -141 l72 -77 -6 -104 c-3 -57
-10 -108 -14 -112 -9 -9 -178 65 -313 137 l-95 51 3 109 c3 96 7 117 34 176
l31 67 31 -21 c17 -12 66 -50 108 -85z m-4295 55 c-3 -7 -5 -2 -5 12 0 14 2
19 5 13 2 -7 2 -19 0 -25z m3043 -25 c-108 -228 -188 -504 -228 -781 l-18
-124 -89 61 c-50 33 -101 69 -114 79 l-24 19 65 91 c105 145 194 334 228 482
10 43 24 67 64 110 28 30 61 67 72 81 18 23 52 41 63 33 2 -2 -7 -25 -19 -51z
m2310 -10 c-17 -83 -60 -237 -69 -246 -5 -4 -27 23 -50 60 -23 37 -47 75 -53
85 -9 12 -9 20 1 32 19 23 173 137 178 132 3 -2 -1 -31 -7 -63z m-3196 -3 c-6
-42 -11 -53 -31 -61 -30 -11 -90 -12 -97 -1 -5 8 125 123 132 117 2 -1 0 -26
-4 -55z m651 52 c-21 -18 -273 -98 -282 -89 -2 3 20 18 49 35 29 17 62 37 73
46 21 16 178 24 160 8z m2173 -80 c49 -59 57 -72 48 -72 -7 0 -116 137 -116
146 0 9 1 8 68 -74z m-3538 54 c0 -3 -4 -8 -10 -11 -5 -3 -10 -1 -10 4 0 6 5
11 10 11 6 0 10 -2 10 -4z m2500 -40 c0 -28 -7 -52 -19 -67 -19 -24 -19 -23
-3 43 9 38 18 68 20 68 1 0 2 -20 2 -44z m-2262 -62 c7 -5 -81 -134 -91 -134
-7 0 -21 -3 -33 -6 -17 -5 -24 3 -42 45 -12 27 -22 55 -22 62 0 6 17 26 37 44
l36 31 56 -20 c31 -11 57 -21 59 -22z m-1821 11 c9 -25 -4 -29 -17 -6 -7 15
-7 21 0 21 6 0 13 -7 17 -15z m2808 -63 c-54 -52 -167 -142 -178 -142 -9 0 -9
52 -1 102 6 35 9 38 51 44 24 3 70 15 101 24 81 26 82 25 27 -28z m-865 -12
c-12 -16 -26 -30 -31 -30 -11 0 -4 16 19 43 25 29 35 19 12 -13z m-1799 10 c5
0 9 -4 9 -10 0 -5 -11 -10 -25 -10 -16 0 -25 6 -25 16 0 11 5 14 16 10 9 -3
20 -6 25 -6z m2389 -118 l0 -97 -71 -44 c-67 -42 -71 -43 -84 -25 -8 11 -12
25 -10 32 5 13 37 140 49 194 6 28 21 34 84 37 l32 1 0 -98z m-980 49 c15 -28
14 -29 -25 -37 -47 -8 -54 0 -25 31 28 30 36 31 50 6z m1331 -79 c-51 -128
-193 -373 -208 -358 -9 9 -32 137 -32 176 0 32 6 39 69 84 37 27 95 73 127
102 32 28 59 51 61 49 1 -1 -6 -25 -17 -53z m2454 -99 l30 -22 -53 -106 c-53
-105 -54 -106 -85 -100 -18 2 -77 12 -132 21 -55 9 -105 19 -112 23 -15 8 49
135 124 248 l55 82 71 -62 c40 -34 86 -72 102 -84z m-4829 104 c60 -19 137
-39 170 -46 60 -13 62 -14 68 -50 14 -87 14 -87 -74 -110 -103 -28 -231 -53
-245 -47 -13 5 -120 217 -130 259 -7 27 -7 27 48 27 33 0 97 -13 163 -33z
m-271 -49 c15 -40 43 -102 61 -138 37 -70 41 -85 20 -73 -26 16 -216 250 -216
267 0 6 36 13 76 15 29 1 32 -2 59 -71z m1914 -25 l49 -68 -23 -64 c-13 -35
-27 -67 -32 -71 -27 -25 -352 -128 -353 -112 -1 4 -5 27 -9 52 -12 59 15 113
109 217 59 66 78 81 122 95 29 9 61 16 70 17 11 1 37 -26 67 -66z m-2323 -48
l63 -45 -22 -50 -22 -50 -40 6 c-56 8 -219 41 -268 55 l-42 11 30 16 c42 23
218 101 229 102 5 0 37 -20 72 -45z m4218 -45 c-8 -46 -23 -116 -33 -155 l-19
-70 -1 113 c-1 111 0 114 30 158 17 25 32 44 34 42 2 -2 -3 -41 -11 -88z
m-3104 71 c25 -8 25 -8 -11 -23 -75 -33 -79 -32 -79 1 0 28 3 31 33 30 17 -1
43 -4 57 -8z m683 -30 c6 -26 -29 -104 -45 -99 -16 5 -56 76 -57 101 -1 14 8
17 48 17 39 0 50 -4 54 -19z m-2505 -52 l113 -55 -48 -34 c-26 -19 -67 -52
-91 -74 -25 -23 -46 -35 -51 -30 -10 10 -51 198 -51 233 0 12 3 21 8 19 4 -2
58 -29 120 -59z m5669 -5 l21 -56 -31 6 c-17 3 -32 7 -33 9 -5 5 9 97 15 97 3
0 16 -25 28 -56z m-3643 -16 c-14 -29 -52 -95 -83 -146 -61 -101 -58 -100
-136 -68 -28 12 -32 20 -42 72 -6 33 -9 62 -7 65 2 3 41 20 86 38 46 17 108
45 138 61 30 16 58 29 63 30 4 0 -4 -24 -19 -52z m3140 13 c66 -37 252 -120
304 -135 26 -9 27 -14 7 -91 -29 -113 -68 -225 -79 -225 -6 0 -45 7 -87 15
-42 7 -135 20 -208 26 -112 11 -131 15 -126 28 16 39 73 263 84 326 15 83 18
95 27 95 4 0 39 -18 78 -39z m-2945 -20 l38 -20 -8 -53 c-5 -29 -14 -73 -21
-97 -13 -43 -15 -44 -81 -64 -37 -11 -69 -18 -72 -15 -12 11 86 268 102 268 2
0 21 -9 42 -19z m5465 -12 c13 -67 9 -77 -35 -89 -80 -22 -185 -39 -274 -44
-100 -7 -101 -8 55 54 58 23 134 56 170 74 36 19 68 34 71 35 4 0 9 -13 13
-30z m-6757 -56 c2 -5 -17 -7 -42 -5 -49 4 -50 5 -34 33 10 20 10 20 42 0 17
-11 33 -24 34 -28z m2508 1 c3 -25 5 -48 3 -50 -3 -2 -20 12 -39 32 -33 34
-33 36 -15 50 32 23 43 16 51 -32z m3182 -54 c8 0 11 -4 8 -10 -3 -5 -41 -10
-85 -10 l-78 0 -17 43 c-9 23 -19 48 -22 55 -3 7 37 -8 88 -33 51 -25 99 -45
106 -45z m-6317 29 c86 -27 152 -44 225 -58 33 -7 71 -14 85 -17 19 -4 -3 -14
-89 -40 -135 -41 -274 -99 -388 -160 -44 -24 -94 -44 -110 -44 -28 0 -31 4
-48 61 l-19 61 53 47 c60 51 213 170 221 170 3 1 34 -9 70 -20z m6025 -21 c7
-26 5 -28 -24 -28 l-31 0 17 35 c18 38 28 36 38 -7z m-3966 5 c11 -23 10 -29
-5 -40 -26 -19 -37 -16 -30 10 3 12 6 30 6 40 0 26 15 21 29 -10z m-705 -15
c9 -35 7 -48 -6 -43 -7 2 -40 9 -73 16 l-60 12 60 18 c77 22 72 23 79 -3z
m3120 -220 l7 -45 -78 -7 c-72 -7 -272 -45 -318 -62 -18 -6 -18 -5 -5 8 8 8
48 41 89 73 40 32 121 107 180 166 l106 107 6 -98 c4 -53 9 -117 13 -142z
m-1497 190 c16 -18 57 -59 91 -91 l61 -57 -42 -40 c-60 -57 -199 -151 -294
-199 -45 -23 -85 -41 -90 -41 -4 0 -14 9 -20 19 -11 17 -6 32 34 103 25 46 68
132 94 193 40 91 54 112 81 127 45 24 50 23 85 -14z m2440 -63 c-21 -85 -47
-232 -47 -260 0 -19 -4 -35 -8 -35 -21 0 -147 49 -145 56 0 5 15 54 32 109 16
55 35 119 41 141 l10 42 61 -16 c52 -14 60 -19 56 -37z m-3319 -7 c-3 -7 -18
-14 -34 -16 l-29 -2 25 14 c31 19 43 20 38 4z m-1165 -57 c86 -82 208 -180
290 -233 l78 -51 -28 -30 c-15 -16 -58 -44 -94 -62 l-65 -33 -50 31 c-141 88
-435 201 -609 233 -49 9 -96 18 -103 20 -8 2 2 25 30 68 l43 64 70 12 c118 22
176 27 283 29 l104 1 51 -49z m5784 -6 c16 -58 72 -205 85 -221 13 -18 0 -22
-45 -13 -23 4 -79 8 -125 9 l-82 0 16 38 c9 20 32 83 52 140 33 96 36 103 60
100 21 -2 27 -12 39 -53z m-4102 -39 c-21 -42 -41 -76 -45 -76 -8 0 -94 100
-89 104 8 6 164 53 168 50 2 -2 -14 -37 -34 -78z m3128 50 c-18 -31 -67 -96
-73 -96 -6 0 -40 98 -40 117 0 6 20 6 60 0 39 -6 57 -14 53 -21z m797 11 c0
-8 -53 -147 -76 -197 -24 -55 -30 -60 -58 -60 -17 0 -57 -6 -89 -14 -31 -7
-59 -11 -61 -7 -9 15 -17 111 -9 111 4 0 55 38 113 85 89 72 111 85 143 85 20
0 37 -1 37 -3z m-453 -30 c0 -1 4 -18 8 -38 7 -36 6 -36 -67 -81 -77 -48 -291
-158 -307 -158 -5 0 -12 9 -16 20 -4 14 10 39 52 93 32 40 74 97 93 126 l35
52 100 -6 c55 -4 101 -8 102 -8z m-5836 -44 c-32 -54 -56 -62 -136 -44 -28 6
-25 9 45 33 93 33 104 34 91 11z m1096 -8 c59 -7 63 -8 73 -39 12 -37 5 -66
-17 -66 -16 0 -152 101 -153 113 0 5 8 6 18 3 9 -2 45 -8 79 -11z m4148 -147
l8 -78 -32 11 c-18 6 -31 18 -31 27 0 22 18 140 27 172 6 23 7 21 14 -15 4
-22 11 -75 14 -117z m-2256 60 c11 -32 41 -98 66 -147 25 -50 45 -95 45 -100
0 -8 -161 -55 -275 -80 -83 -19 -250 -40 -256 -33 -4 4 -22 36 -42 72 l-36 65
96 50 c98 50 233 143 313 214 52 47 57 45 89 -41z m-1184 25 c-4 -21 -8 -40
-10 -42 -6 -6 -95 49 -95 59 0 9 31 16 84 19 27 1 28 0 21 -36z m398 -32 c58
-71 64 -81 48 -81 -11 0 -121 130 -121 142 0 20 20 3 73 -61z m-827 -26 c-6
-44 -15 -80 -20 -80 -5 0 -16 19 -24 41 -15 41 -15 41 18 83 18 22 34 40 35
38 2 -1 -3 -38 -9 -82z m654 -45 c0 -36 -3 -75 -6 -87 l-6 -23 -38 30 c-42 33
-42 34 -8 158 l11 44 23 -29 c19 -23 23 -40 24 -93z m-2730 76 c0 -14 -29 -31
-38 -21 -6 6 18 35 29 35 5 0 9 -6 9 -14z m2270 -33 c0 -3 -9 -21 -21 -39 -14
-24 -28 -34 -45 -34 -22 0 -24 4 -24 44 0 71 5 76 50 53 22 -10 40 -21 40 -24z
m1620 -56 c57 -38 65 -47 63 -72 -2 -29 -17 -45 -43 -45 -9 0 -34 34 -58 80
-24 44 -40 80 -35 80 4 0 37 -19 73 -43z m-3375 -28 c-66 -67 -201 -179 -215
-179 -6 0 -30 40 -55 89 l-45 90 32 23 c39 27 87 35 233 37 l109 1 -59 -61z
m4880 36 c50 -8 96 -18 103 -20 10 -4 0 -31 -38 -103 -28 -53 -57 -103 -64
-110 -15 -16 -234 -28 -252 -15 -13 9 -74 206 -74 238 0 12 3 25 8 30 10 11
211 -1 317 -20z m-4580 1 c118 -21 238 -53 345 -93 99 -37 290 -130 290 -142
0 -3 -25 -26 -55 -50 -31 -23 -82 -67 -115 -97 -94 -87 -331 -187 -588 -247
l-103 -24 -63 81 c-52 67 -142 196 -169 242 -4 7 34 45 91 92 53 44 133 118
177 165 44 46 87 85 95 86 8 0 51 -5 95 -13z m4095 8 c0 -13 -103 -224 -109
-224 -45 1 -377 93 -395 110 -16 16 264 93 409 113 51 7 95 7 95 1z m-2500
-40 c35 -23 46 -33 30 -30 -14 4 -44 9 -67 12 -44 7 -48 11 -37 38 8 22 12 21
74 -20z m4180 -14 c0 -22 -10 -29 -70 -53 -38 -15 -110 -53 -160 -83 l-91 -55
-29 18 c-17 9 -30 20 -30 23 0 3 46 27 103 53 56 27 138 69 182 96 83 49 95
49 95 1z m-865 -38 c72 -26 80 -31 83 -56 2 -16 -1 -33 -6 -38 -9 -9 -264 -60
-270 -54 -2 2 16 42 40 90 26 52 48 86 58 86 8 0 51 -13 95 -28z m1470 11 c22
-5 -6 -12 -109 -30 -77 -13 -141 -21 -143 -19 -10 9 22 55 41 60 25 5 168 -2
211 -11z m-4331 -17 c18 -28 13 -52 -14 -66 -24 -13 -26 -8 -22 44 4 52 13 57
36 22z m3959 -32 c-24 -42 -54 -64 -89 -64 -10 0 -14 12 -14 44 l0 44 48 10
c84 17 84 18 55 -34z m-4390 -4 c38 -11 52 -40 18 -40 -21 0 -174 30 -180 35
-1 2 0 9 4 16 9 13 93 7 158 -11z m-485 -34 c57 -29 71 -41 87 -76 l19 -41
-79 -79 -78 -78 -81 70 c-45 39 -88 77 -95 84 -13 12 -5 23 60 83 40 39 80 70
87 71 7 0 43 -15 80 -34z m4655 -23 c2 -21 3 -41 1 -44 -2 -3 -53 -28 -115
-54 l-111 -48 -25 25 -25 25 59 36 c67 41 183 97 199 97 7 0 14 -17 17 -37z
m-1591 -55 c-4 -4 -17 -5 -29 -2 -22 6 -22 7 -6 38 l16 31 13 -30 c7 -16 9
-33 6 -37z m-710 23 c95 -37 254 -86 348 -107 41 -9 77 -18 79 -20 1 -1 -28
-48 -65 -103 l-69 -101 -100 0 c-55 0 -130 -3 -166 -6 l-66 -7 -72 68 c-76 72
-77 74 -86 177 l-7 67 48 31 c26 16 56 30 66 30 9 0 50 -13 90 -29z m3253 -17
c-26 -28 -33 -29 -57 -7 -31 28 -22 38 31 35 l48 -4 -22 -24z m-124 -27 l47
-53 -63 -82 c-173 -225 -292 -445 -367 -677 -18 -58 -35 -105 -38 -105 -3 0
-23 40 -44 88 -64 141 -162 307 -238 403 l-28 35 12 112 13 112 50 64 50 64
105 26 c130 32 319 62 410 64 42 2 48 -1 91 -51z m-4395 7 c19 -15 34 -30 34
-35 0 -5 -27 -9 -60 -9 -33 0 -60 3 -60 6 0 8 40 64 46 64 3 0 21 -12 40 -26z
m-341 -4 c3 -5 -1 -10 -9 -10 -9 0 -16 5 -16 10 0 6 4 10 9 10 6 0 13 -4 16
-10z m3371 -168 c-12 -13 -14 -4 -9 69 6 116 17 131 21 30 2 -64 -1 -88 -12
-99z m-3642 82 c35 -6 35 -6 40 -72 4 -37 8 -88 11 -114 3 -34 0 -50 -12 -60
-14 -11 -24 -4 -75 52 -70 77 -198 244 -198 258 0 6 45 -5 100 -23 55 -19 115
-37 134 -41z m3525 9 c-1 -65 -13 -140 -20 -128 -4 6 -12 43 -19 84 -10 61
-10 75 1 82 30 19 39 10 38 -38z m-2234 -58 c-49 -46 -96 -84 -102 -85 -15 0
-163 72 -163 80 0 3 44 14 98 24 53 9 131 28 172 41 41 12 77 23 80 24 3 0
-35 -37 -85 -84z m2115 30 c0 -30 34 -176 54 -233 l16 -43 -151 -147 c-83 -81
-156 -148 -163 -150 -18 -4 -153 153 -245 285 l-22 32 96 45 c112 53 257 137
340 200 33 24 63 42 67 40 5 -3 8 -16 8 -29z m-4082 -84 c28 -25 52 -49 52
-53 0 -23 -220 -145 -345 -191 -118 -43 -349 -97 -362 -84 -5 6 27 72 66 135
22 36 43 52 131 97 58 30 154 88 215 129 l109 74 41 -31 c22 -17 64 -52 93
-76z m2201 75 c9 -11 40 -189 41 -235 0 -5 -46 7 -157 41 -57 17 -103 35 -103
39 0 9 190 169 200 169 4 0 13 -6 19 -14z m2311 -1 c7 -9 11 -17 9 -18 -11 -8
-81 -47 -85 -47 -15 0 1 38 24 57 33 27 36 27 52 8z m-1224 -11 c39 -5 41 -7
79 -84 21 -44 37 -82 34 -84 -10 -11 -187 -58 -219 -59 -29 -1 -157 28 -168
38 -2 2 24 44 57 95 34 51 61 96 61 101 0 8 46 6 156 -7z m494 6 c0 -5 -4 -10
-9 -10 -5 0 -37 -16 -71 -35 -35 -20 -64 -34 -66 -32 -2 2 8 19 21 38 20 26
35 35 68 40 23 3 45 7 50 7 4 1 7 -2 7 -8z m-3446 -86 c4 -37 16 -105 27 -152
11 -47 18 -86 16 -88 -1 -2 -24 25 -50 59 -26 34 -63 81 -84 105 l-36 43 53
54 c29 30 57 52 60 50 4 -3 10 -34 14 -71z m566 62 c0 -7 -7 -19 -15 -26 -13
-11 -15 -8 -15 14 0 16 5 26 15 26 8 0 15 -6 15 -14z m2620 -16 c-30 -43 -37
-44 -55 -11 -8 17 -15 32 -15 36 0 3 21 5 46 5 l45 0 -21 -30z m1340 21 c0
-15 -51 -71 -64 -71 -13 0 -53 38 -45 43 41 27 109 45 109 28z m-6310 -111
c35 -52 66 -97 70 -100 3 -3 16 -20 29 -37 21 -32 22 -33 3 -33 -40 0 -246
106 -316 163 l-29 24 84 45 c46 25 87 43 90 40 4 -4 35 -50 69 -102z m2625 18
c70 -88 175 -245 175 -263 0 -7 -15 -16 -32 -19 -18 -3 -84 -28 -146 -55
l-112 -49 -69 44 c-38 25 -71 54 -74 65 -3 11 5 43 17 72 13 29 31 77 41 107
18 55 107 170 131 170 6 0 37 -33 69 -72z m313 -10 c53 -147 67 -209 51 -219
-26 -16 -34 -9 -83 76 -27 47 -71 112 -98 145 -26 33 -48 62 -48 65 0 2 26 6
58 8 31 2 64 4 74 5 12 2 24 -20 46 -80z m3216 -45 c3 -7 -24 -34 -62 -62 -85
-63 -244 -163 -250 -157 -8 9 20 145 33 156 7 6 57 37 111 70 l98 58 32 -26
c18 -15 35 -32 38 -39z m-4169 -34 l79 -92 -44 -38 c-25 -22 -50 -39 -57 -39
-9 0 -34 89 -67 243 -7 32 10 18 89 -74z m1148 53 c40 -21 78 -41 85 -46 10
-6 4 -17 -22 -46 -19 -21 -42 -50 -51 -64 -10 -14 -21 -26 -25 -26 -4 0 -13
25 -19 56 -7 32 -21 81 -32 110 -10 30 -16 54 -13 54 3 0 38 -17 77 -38z
m-1543 -60 c8 -9 36 -42 61 -72 26 -30 70 -88 98 -129 l51 -75 -47 -30 c-27
-16 -105 -58 -174 -93 l-127 -63 -88 44 c-107 54 -245 108 -334 131 -99 26
-100 29 -3 54 172 45 396 147 498 227 36 28 46 29 65 6z m2630 -38 c0 -3 -5
-14 -10 -25 -14 -25 -90 -26 -127 -2 l-26 17 24 7 c30 9 139 11 139 3z m-762
-41 l83 -30 -26 -17 c-23 -15 -36 -16 -137 -4 l-112 13 34 38 c38 44 34 44
158 0z m2800 12 c20 -25 20 -25 -4 -127 -30 -125 -75 -257 -123 -362 l-36 -78
-105 108 c-99 103 -170 193 -170 219 0 6 30 26 68 44 77 38 209 122 283 181
28 22 55 40 59 40 5 0 17 -11 28 -25z m-1838 5 c0 -5 -2 -10 -4 -10 -3 0 -8 5
-11 10 -3 6 -1 10 4 10 6 0 11 -4 11 -10z m-3677 -71 l-36 -72 -121 7 c-67 4
-136 11 -155 14 -31 7 -23 10 85 40 65 19 146 44 179 57 33 13 65 24 72 24 7
1 -3 -29 -24 -70z m4191 35 c6 -10 29 -44 51 -74 55 -74 61 -85 44 -74 -54 34
-166 108 -173 115 -10 9 43 61 58 56 5 -2 14 -12 20 -23z m806 -46 c0 -16 -3
-19 -11 -11 -6 6 -8 16 -5 22 11 17 16 13 16 -11z m-2042 -4 c16 -5 22 -14 22
-35 l0 -28 -61 21 c-60 20 -61 21 -38 34 27 15 44 17 77 8z m942 -9 c0 -11
-151 -105 -169 -105 -10 0 -50 14 -88 32 l-68 32 70 9 c39 5 104 15 145 22 86
15 110 17 110 10z m-560 -42 c2 -2 -23 -31 -57 -64 l-60 -61 -32 16 c-17 9
-31 20 -31 24 0 4 -7 29 -15 55 l-14 48 102 -7 c56 -4 104 -8 107 -11z m881
-94 c111 -82 111 -83 -6 -75 -107 8 -315 42 -327 54 -4 4 29 35 74 70 l82 62
56 -31 c30 -17 85 -53 121 -80z m-2755 87 c3 -8 -4 -33 -16 -57 -28 -54 -111
-179 -119 -179 -3 1 -19 28 -34 62 -23 51 -25 63 -13 70 7 4 45 32 82 62 72
57 91 65 100 42z m1163 -3 c0 -5 -35 -35 -78 -68 -94 -72 -134 -80 -139 -28
-2 23 4 43 24 68 l26 35 84 0 c46 0 84 -3 83 -7z m-341 -32 c6 -37 -15 -50
-28 -17 -14 38 -13 48 8 44 9 -2 19 -14 20 -27z m3441 -124 c110 -192 185
-384 185 -474 0 -35 -4 -66 -7 -70 -10 -10 -137 32 -235 78 -69 32 -146 75
-210 117 -9 6 -2 31 31 103 41 88 101 257 127 358 l11 44 26 -38 c14 -20 46
-74 72 -118z m-2811 91 c51 -16 95 -35 97 -42 2 -6 12 -39 23 -73 11 -38 15
-66 10 -71 -6 -6 -40 3 -88 24 -71 31 -228 74 -322 89 -21 3 -38 9 -38 13 0 4
34 30 76 59 86 58 69 58 242 1z m2018 15 c-11 -11 -19 6 -11 24 8 17 8 17 12
0 3 -10 2 -21 -1 -24z m-2798 -48 c23 -46 28 -67 20 -69 -7 -2 -37 -12 -67
-21 -62 -19 -71 -17 -166 26 l-69 31 29 16 c27 14 202 80 215 82 3 0 20 -29
38 -65z m1417 13 c36 -18 65 -35 65 -39 0 -6 -116 -62 -191 -92 -32 -13 -38
-13 -58 3 l-23 17 68 70 c38 38 70 70 71 71 2 1 32 -12 68 -30z m-3654 -27
c24 -6 25 -7 15 -49 l-11 -44 -53 43 c-28 23 -52 46 -52 51 0 9 62 9 101 -1z
m-218 -92 c51 -45 116 -100 145 -123 50 -39 52 -43 52 -90 l0 -48 -257 5
c-166 3 -294 11 -358 21 -109 18 -312 64 -334 76 -25 13 178 117 327 166 92
31 266 72 305 73 22 1 50 -18 120 -80z m496 55 c169 -38 416 -134 395 -154
-13 -11 -153 -55 -269 -84 l-99 -25 -73 45 c-100 62 -173 121 -169 136 2 7 10
34 16 61 12 45 14 47 48 47 19 0 87 -12 151 -26z m4751 -15 c0 -17 -91 -219
-99 -219 -4 0 -16 7 -28 15 l-22 15 42 90 c30 64 49 92 67 99 34 13 40 13 40
0z m-3395 -38 c5 -26 0 -35 -51 -82 -31 -30 -63 -60 -70 -67 -20 -20 -28 6
-10 31 9 12 37 52 62 90 25 37 49 65 54 62 5 -3 11 -18 15 -34z m2329 4 c132
-35 286 -55 429 -55 165 0 167 -3 88 -122 -32 -48 -75 -116 -96 -151 l-39 -63
-175 -12 c-97 -7 -205 -19 -241 -27 -36 -8 -68 -14 -72 -15 -4 0 -32 38 -63
84 -31 46 -90 121 -133 166 -55 60 -73 85 -62 88 8 3 69 33 135 67 66 34 124
63 129 64 4 0 49 -10 100 -24z m1362 -210 l91 -90 -24 -40 c-13 -22 -27 -46
-31 -53 -6 -10 -27 -5 -93 23 -125 53 -244 119 -242 136 1 8 25 66 54 131 l53
116 50 -66 c28 -37 91 -107 142 -157z m-3411 183 c36 -18 65 -35 65 -39 0 -4
-26 -23 -57 -43 l-58 -35 -17 32 c-33 61 -42 98 -27 108 20 13 22 12 94 -23z
m829 17 c107 -16 207 -43 282 -76 44 -20 46 -23 29 -35 -30 -22 -102 -27 -285
-20 -211 8 -240 12 -240 36 0 23 77 110 98 110 10 0 61 -7 116 -15z m-1470
-75 c20 -43 36 -85 36 -92 0 -8 -31 -45 -69 -82 l-70 -69 -57 49 c-31 27 -79
66 -106 88 l-50 39 109 56 c60 31 120 64 133 74 13 9 27 17 31 17 3 0 23 -36
43 -80z m3543 48 c-26 -50 -28 -50 -48 -32 -10 9 -19 21 -19 26 0 10 37 26 62
27 14 1 15 -2 5 -21z m-2527 -8 c0 -5 -11 -10 -25 -10 -14 0 -25 5 -25 10 0 6
11 10 25 10 14 0 25 -4 25 -10z m-138 -87 c43 -16 78 -31 78 -34 0 -3 -13 -41
-29 -85 l-29 -79 -98 -3 -99 -3 -37 59 c-21 32 -38 63 -38 69 0 8 156 103 170
103 2 0 39 -12 82 -27z m-449 -50 l29 -66 -50 -50 c-27 -27 -55 -47 -60 -43
-14 9 -72 94 -72 107 0 9 110 118 120 119 3 0 18 -30 33 -67z m1879 -44 c72
-76 178 -216 178 -236 0 -5 -21 -15 -47 -22 -27 -7 -55 -15 -64 -18 -11 -3
-29 13 -55 49 -21 29 -80 97 -132 150 -52 54 -92 103 -90 110 4 11 94 45 123
47 6 1 45 -35 87 -80z m1147 37 c-5 -6 -14 -3 -24 10 -22 29 -18 37 9 17 15
-11 21 -22 15 -27z m-3713 -134 c41 -34 74 -66 74 -70 0 -4 -28 -27 -61 -51
l-60 -44 -82 23 c-45 12 -106 34 -137 50 -30 15 -93 40 -140 56 -47 15 -89 31
-93 34 -4 4 33 19 82 34 49 14 127 42 173 60 l83 34 44 -32 c24 -17 77 -59
117 -94z m1324 98 c-6 -12 -14 -19 -17 -17 -2 3 1 15 7 27 6 12 14 19 17 17 2
-3 -1 -15 -7 -27z m2314 -15 c21 -39 19 -46 -52 -132 -28 -35 -41 -43 -68 -43
-19 0 -34 5 -34 11 0 14 120 199 129 199 3 0 15 -16 25 -35z m-1380 -97 c29
-62 71 -146 94 -185 23 -39 42 -74 42 -76 0 -3 -23 -19 -52 -35 l-52 -30 -55
35 c-76 49 -235 128 -337 167 l-86 33 69 38 c37 21 113 66 168 101 86 53 139
77 154 67 2 -1 27 -53 55 -115z m-3204 102 c8 -5 11 -12 8 -16 -10 -9 -38 3
-38 16 0 12 10 13 30 0z m2675 -16 l90 -7 -110 -54 c-94 -47 -116 -54 -153
-50 -24 3 -45 7 -48 10 -3 3 -2 31 1 62 l8 57 61 -5 c33 -4 101 -9 151 -13z
m2052 -66 c-3 -8 -6 -5 -6 6 -1 11 2 17 5 13 3 -3 4 -12 1 -19z m-3437 -2 c0
-11 -58 -107 -76 -125 -2 -2 -13 4 -24 14 -21 19 -20 19 32 72 54 55 68 63 68
39z m420 -22 c13 -33 14 -31 -19 -37 -16 -3 -42 -9 -57 -13 l-29 -7 40 42 c21
22 43 41 47 41 5 0 13 -12 18 -26z m3386 -101 c49 -22 97 -43 107 -47 19 -6
13 -18 -62 -116 l-19 -24 -82 38 c-45 22 -114 51 -154 67 -88 34 -92 47 -37
128 l41 60 58 -33 c32 -18 99 -51 148 -73z m-3616 11 c0 -7 -9 -14 -20 -17
-16 -4 -22 2 -30 36 -6 23 -13 49 -15 57 -3 8 11 -3 30 -25 19 -22 35 -45 35
-51z m-1179 15 c95 -47 263 -119 334 -143 53 -17 82 -33 75 -39 -18 -14 -231
-100 -303 -122 -88 -26 -263 -65 -296 -65 -17 0 -23 11 -68 130 -24 64 -67
239 -60 246 4 5 173 31 210 33 15 0 64 -17 108 -40z m5252 -20 c99 -59 101
-61 57 -54 -25 4 -82 16 -127 27 -79 19 -82 21 -71 42 13 25 29 46 35 46 2 0
50 -27 106 -61z m-873 21 c16 -38 10 -44 -29 -35 l-31 7 17 29 c22 36 28 36
43 -1z m-4744 -98 c12 -53 37 -138 56 -189 l35 -91 -86 -7 c-123 -10 -362 14
-516 51 -86 21 -245 74 -245 82 0 9 99 78 180 126 53 31 193 95 260 119 8 3
78 6 155 6 l140 1 21 -98z m1396 47 c4 -26 1 -32 -26 -43 -17 -7 -32 -12 -34
-11 -6 5 38 85 47 85 5 0 11 -14 13 -31z m735 -5 c-3 -20 -9 -39 -12 -42 -6
-6 -64 57 -65 71 0 4 19 7 41 7 l42 0 -6 -36z m213 22 c0 -7 -10 -16 -22 -19
-27 -7 -30 -5 -22 17 7 19 44 22 44 2z m1210 -78 c0 -5 -3 -8 -7 -8 -8 0 -53
74 -53 86 0 10 59 -69 60 -78z m-1682 27 c12 -19 22 -39 22 -45 0 -5 -20 -10
-44 -10 -36 0 -51 6 -77 30 -18 16 -31 31 -28 34 6 6 70 24 89 25 8 0 25 -15
38 -34z m-680 -5 c25 -34 22 -36 -51 -24 l-38 7 22 23 c29 31 41 30 67 -6z
m1579 -19 c116 -38 261 -102 348 -153 38 -22 72 -42 74 -44 2 -2 -3 -10 -12
-18 -14 -14 -23 -12 -89 18 -148 69 -326 121 -510 151 -21 3 -38 10 -38 14 0
8 113 59 132 61 3 0 46 -13 95 -29z m1506 14 c-1 -5 -24 -64 -51 -130 l-49
-120 -74 -47 c-41 -26 -79 -48 -84 -48 -6 0 -19 30 -29 68 -11 37 -36 108 -56
159 l-38 91 67 12 c144 26 318 34 314 15z m187 -3 c0 -5 -13 -21 -30 -37 -34
-32 -37 -28 -15 15 14 27 45 42 45 22z m-2820 -27 c19 -22 9 -27 -51 -23 l-54
3 35 17 c44 21 54 22 70 3z m3012 -10 c5 -22 -344 -307 -358 -292 -12 12 18
50 71 91 35 27 103 89 151 137 73 73 90 86 110 80 13 -3 25 -10 26 -16z m873
-20 c132 -32 295 -55 384 -55 l72 0 -3 -97 -3 -97 -110 -27 c-60 -15 -148 -41
-194 -58 l-84 -31 -61 58 c-34 31 -103 86 -154 122 -80 56 -90 66 -79 81 81
112 104 137 117 133 8 -3 60 -16 115 -29z m-1636 -183 c50 -149 50 -146 -5
-167 l-47 -18 -27 33 c-15 18 -37 65 -50 103 -12 38 -35 99 -51 135 -16 36
-27 67 -25 69 2 3 31 13 63 23 l58 18 28 -54 c15 -30 40 -94 56 -142z m922
136 c21 -80 38 -193 39 -259 l0 -65 -102 -68 c-126 -83 -311 -175 -449 -221
-57 -19 -105 -35 -107 -35 -7 0 5 72 29 181 l22 97 96 57 c119 71 274 192 366
285 38 38 75 70 82 70 7 0 17 -19 24 -42z m194 -42 c52 -25 95 -48 95 -53 0
-16 -108 -115 -118 -109 -16 10 -90 206 -78 206 4 0 49 -20 101 -44z m-1385
25 c0 -5 3 -18 6 -28 6 -16 5 -16 -9 2 -19 23 -21 35 -7 35 6 0 10 -4 10 -9z
m-2627 -28 c20 -16 36 -32 36 -38 0 -5 -25 -28 -55 -49 -30 -22 -90 -72 -133
-113 l-79 -73 -104 34 c-56 19 -131 40 -165 47 l-63 12 123 40 c67 23 176 69
242 103 66 34 129 62 141 63 11 0 37 -11 57 -26z m1288 2 c-1 -15 -24 -12 -29
3 -3 9 2 13 12 10 10 -1 17 -7 17 -13z m406 -26 c97 -21 248 -70 336 -109 l49
-22 -98 -91 c-53 -51 -101 -94 -106 -96 -14 -5 -123 36 -225 86 l-93 45 0 104
c0 122 -11 115 137 83z m-649 -39 c18 -22 30 -40 27 -40 -12 0 -95 63 -95 72
0 21 38 3 68 -32z m-688 -5 c19 -31 20 -38 8 -77 -11 -40 -34 -70 -49 -65 -4
1 -26 26 -49 55 -39 50 -41 55 -30 87 11 33 14 35 55 35 39 0 46 -4 65 -35z
m2158 -27 c23 -35 72 -101 110 -148 39 -47 68 -87 66 -89 -3 -3 -35 27 -72 65
-37 39 -101 99 -142 134 -41 35 -75 66 -75 68 0 6 49 31 61 32 6 0 30 -28 52
-62z m-1943 32 c-3 -5 -10 -10 -16 -10 -5 0 -9 5 -9 10 0 6 7 10 16 10 8 0 12
-4 9 -10z m310 -35 c23 -19 77 -58 119 -87 l77 -54 4 -58 4 -58 -72 -72 c-94
-93 -315 -242 -333 -224 -3 3 -16 52 -28 109 -13 57 -42 154 -65 215 -23 61
-41 119 -41 128 0 9 22 27 52 42 54 27 217 93 232 94 5 0 28 -16 51 -35z
m-751 -23 c3 -5 -1 -32 -9 -61 -7 -29 -19 -93 -26 -142 -9 -60 -19 -95 -30
-105 -16 -15 -20 -14 -51 9 -18 14 -59 41 -91 60 l-58 35 78 70 c84 76 164
141 175 141 4 1 9 -3 12 -7z m4166 -39 c90 -64 190 -145 190 -153 0 -4 -42
-31 -92 -60 -51 -29 -113 -66 -138 -82 l-45 -30 -45 49 c-25 27 -62 75 -83
106 l-39 56 84 80 c45 44 88 80 93 81 6 0 40 -21 75 -47z m-1936 -14 c55 -44
158 -141 191 -180 l20 -24 -20 16 c-11 8 -42 34 -69 57 -27 23 -86 68 -132 99
-46 31 -81 60 -78 65 11 17 38 7 88 -33z m-2134 -59 l21 -30 -28 -25 c-39 -34
-46 -31 -39 13 9 45 16 72 21 72 2 0 13 -13 25 -30z m2028 -24 c108 -70 187
-135 171 -140 -8 -3 -59 -10 -115 -15 -98 -10 -194 -1 -298 27 l-29 8 89 82
c49 45 94 82 102 82 7 0 44 -20 80 -44z m-818 2 c0 -12 -14 -10 -28 4 -19 19
-14 29 8 16 11 -7 20 -16 20 -20z m-1942 -4 c80 -16 189 -49 210 -63 11 -6 -1
-27 -50 -88 -34 -44 -75 -95 -89 -114 l-26 -34 -73 60 c-94 77 -230 231 -230
261 0 10 173 -5 258 -22z m942 -59 c0 -36 -3 -65 -7 -65 -5 0 -16 13 -25 29
-16 30 -15 64 5 89 19 25 27 10 27 -53z m2676 40 c-11 -8 -25 -15 -30 -15 -6
0 -2 7 8 15 11 8 25 15 30 15 6 0 2 -7 -8 -15z m1874 3 c0 -40 23 -208 40
-301 16 -84 18 -116 10 -147 -5 -22 -15 -59 -21 -82 l-11 -41 -50 94 c-70 130
-178 288 -251 366 l-30 33 34 14 c19 8 75 26 124 40 143 40 155 41 155 24z
m-3756 -46 c2 -4 -2 -18 -10 -32 -9 -18 -13 -20 -14 -8 0 9 -3 23 -6 32 -6 16
20 24 30 8z m356 -12 c12 -8 11 -10 -7 -10 -12 0 -25 5 -28 10 -8 13 15 13 35
0z m2463 -62 c31 -40 67 -87 81 -104 l25 -31 -50 -38 c-27 -20 -100 -91 -163
-156 l-114 -119 20 52 c34 91 67 227 79 332 10 82 16 104 33 118 11 10 24 18
27 18 4 0 32 -33 62 -72z m-3741 -85 c-2 -70 0 -158 5 -195 5 -38 8 -68 7 -68
-2 0 -27 33 -58 73 -30 39 -66 83 -80 96 -20 19 -26 34 -26 67 0 41 4 46 71
104 38 33 74 58 78 56 4 -3 6 -63 3 -133z m1073 93 c26 -11 35 -21 35 -39 0
-66 -84 -397 -100 -397 -10 0 -48 102 -69 186 l-17 67 54 99 c30 54 56 98 59
98 2 0 19 -7 38 -14z m-1464 -47 c43 -28 79 -53 79 -56 0 -3 -137 -190 -155
-211 -4 -4 -157 58 -183 74 -23 15 -23 16 -6 42 42 66 157 202 170 202 9 0 51
-23 95 -51z m4790 -122 c68 -90 174 -265 165 -274 -11 -11 -179 37 -272 78
-113 49 -304 172 -304 196 0 10 117 82 215 133 l60 31 38 -43 c21 -24 65 -78
98 -121z m-1622 116 c-5 -21 -9 -42 -9 -47 0 -23 -30 20 -30 44 0 31 7 40 31
40 14 0 16 -5 8 -37z m771 7 c0 -5 -9 -54 -19 -108 -20 -105 -54 -213 -95
-305 l-25 -58 -128 65 c-70 36 -159 85 -198 110 -59 38 -67 46 -50 52 157 57
329 139 434 208 70 47 81 52 81 36z m-2761 -100 c1 -40 -6 -54 -66 -135 -67
-91 -302 -335 -322 -335 -7 0 -11 34 -11 94 0 51 -3 113 -6 137 l-6 44 59 28
c81 40 210 128 279 191 66 60 72 58 73 -24z m-533 -53 c17 -84 18 -117 1 -117
-22 0 -49 119 -41 180 6 47 8 51 16 29 5 -13 16 -55 24 -92z m-161 4 c-12 -88
-25 -81 -24 14 0 87 0 89 15 62 11 -21 14 -42 9 -76z m1211 59 c38 -22 72 -41
77 -43 4 -1 -15 -40 -43 -87 -58 -97 -107 -197 -145 -296 -15 -38 -32 -81 -38
-97 l-12 -27 -31 46 -31 47 34 90 c36 96 86 280 98 360 4 26 11 47 15 47 4 0
38 -18 76 -40z m1290 -16 c50 -44 64 -63 64 -85 0 -19 -6 -30 -21 -34 -25 -8
-21 -13 -75 75 -40 66 -53 100 -38 100 3 0 35 -25 70 -56z m-636 15 l306 1 30
-32 c51 -55 97 -119 90 -125 -12 -12 -322 18 -446 43 -193 38 -479 140 -335
119 28 -4 187 -7 355 -6z m-2178 -146 l5 -83 -26 0 c-34 1 -110 16 -118 23 -6
6 49 87 96 143 32 37 37 29 43 -83z m4235 1 c141 -106 311 -183 478 -218 113
-24 122 -29 136 -74 10 -35 9 -45 -16 -101 l-28 -61 -142 0 c-178 0 -319 14
-494 49 -140 29 -381 99 -381 111 0 14 130 167 186 220 77 72 157 139 166 140
3 0 46 -30 95 -66z m-4118 -36 c38 -52 38 -58 2 -58 -21 0 -30 6 -35 23 -7 25
-8 77 -2 77 2 0 18 -19 35 -42z m390 -136 l-1 -67 -12 65 c-12 67 -11 84 5 75
5 -4 9 -36 8 -73z m2443 15 c-3 -39 -8 -54 -13 -45 -12 17 4 120 16 106 1 -2
0 -29 -3 -61z m-2534 -44 c6 -43 14 -114 17 -158 5 -72 5 -78 -9 -61 -8 10
-31 59 -51 108 l-36 90 16 49 c12 35 22 49 35 49 15 0 20 -13 28 -77z m-204
19 c13 -25 12 -33 -17 -100 -18 -43 -34 -69 -39 -64 -7 7 -58 174 -58 189 0 2
22 3 50 3 44 0 51 -3 64 -28z m4855 -152 c18 -44 30 -84 26 -90 -3 -5 -24 -10
-45 -10 -37 0 -39 2 -54 48 -9 27 -14 55 -12 63 21 58 27 69 39 69 7 0 28 -36
46 -80z m-4755 -96 c22 -87 21 -101 -14 -119 -41 -21 -45 -20 -64 23 -17 39
-17 39 15 105 18 37 36 63 40 59 4 -4 15 -35 23 -68z m1026 -71 c0 -23 -9 -14
-30 30 l-21 42 26 -30 c13 -16 25 -36 25 -42z"/>
</g>
</svg>
